#N canvas 125 196 1158 695 10;
#X declare -stdlib iemlib/iemlib2;
#X declare -stdlib iemlib/iemlib1;
#X declare -lib tof/breakpoints;
#X declare -lib cyclone;
#X declare -stdlib zexy;
#X obj 81 351 cnv 15 204 128 empty empty empty 20 12 0 14 -1 -66577
0;
#X obj 370 25 r SaveMaster;
#X obj 370 360 s to_Master_preset;
#X obj 385 110 r CallBack-Master;
#N canvas 1100 251 385 415 sym-route 0;
#X obj 50 34 inlet;
#X obj 210 36 inlet;
#X obj 84 376 outlet;
#X obj 49 60 t a a;
#X msg 158 222 1;
#X msg 191 221 0;
#X obj 50 276 spigot;
#X obj 50 322 list split 1;
#X obj 84 346 list trim;
#X text 48 13 message;
#X text 210 17 selector;
#X obj 159 276 spigot;
#X obj 192 254 == 0;
#X obj 165 377 outlet;
#X obj 121 100 list split 1;
#X obj 122 122 route symbol;
#X obj 159 186 select ___undefined___;
#X text 183 325 route with variable symbol arg.;
#X connect 0 0 3 0;
#X connect 1 0 16 1;
#X connect 3 0 6 0;
#X connect 3 0 11 0;
#X connect 3 1 14 0;
#X connect 4 0 6 1;
#X connect 4 0 12 0;
#X connect 5 0 6 1;
#X connect 5 0 12 0;
#X connect 6 0 7 0;
#X connect 7 1 8 0;
#X connect 8 0 2 0;
#X connect 11 0 13 0;
#X connect 12 0 11 1;
#X connect 14 0 15 0;
#X connect 15 0 16 0;
#X connect 15 1 5 0;
#X connect 16 0 4 0;
#X connect 16 1 5 0;
#X restore 385 218 pd sym-route;
#X obj 370 338 cyclone/prepend;
#X obj 385 130 t a b;
#X text 466 219 <- credit to Thomas Grill. Thank You!!!;
#X obj 592 242 prepend set;
#X msg 457 316 brp-0--0;
#X obj 592 191 cyclone/prepend symbol;
#X obj 758 147 i \$2;
#X obj 592 115 symbol \$1;
#X obj 85 265 inlet;
#X obj 370 44 t b b;
#X obj 370 295 t a b;
#X obj 880 89 send preAbsCount;
#X obj 880 68 iemguts/canvasindex;
#X obj 880 43 loadbang;
#X obj 867 21 r update_abs_count;
#X obj 85 484 outlet;
#X obj 179 486 outlet;
#X obj 274 483 outlet;
#X msg 205 319 dump;
#X msg 17 236 0 50 1 50 0;
#X obj 84 468 bng 9 250 50 0 \$0-send-reset-brp empty RESET 11 5 0
9 -4032 -258113 -228856;
#X obj 17 214 r \$0-send-reset-brp;
#X obj 385 250 nbx 3 11 -1e+37 1e+37 0 0 empty empty empty 0 -8 0 10
-191407 -1 -1 0 256;
#X obj 575 513 cyclone/coll;
#C restore;
#X msg 665 451 store \$1;
#X obj 626 474 prepend;
#X obj 626 434 list;
#N canvas 168 53 1025 697 open_save-file 0;
#X obj 206 22 inlet;
#X text 354 296 file doesn't exist;
#X text 106 271 file exists;
#X obj 86 577 outlet OPEN --- SAVE;
#X obj 404 383 print -n;
#X obj 266 294 route error;
#X obj 266 366 bang;
#X obj 251 233 prepend symbol;
#X obj 86 340 bang;
#X text 520 483 checks if file exists \; it creates it if it doesn't
exist \; it opens it if the file already exists;
#X obj 556 89 inlet;
#X text 594 87 saves the file each time a new preset is recorded \,
updating the file in disk;
#X obj 206 265 hcs/stat;
#X obj 251 188 tof/path;
#X obj 404 323 b;
#X obj 404 363 list trim;
#X obj 404 343 makesymbol -----CREATING_BRP_MEM_FILE_\$1-\$2-----;
#X obj 91 307 bng 15 250 50 0 empty empty empty 17 7 0 10 -262144 -1
-1;
#X obj 206 51 del 100;
#N canvas 0 50 500 300 write_file 0;
#X obj 126 29 inlet;
#X obj 126 230 outlet;
#X obj 126 137 tof/path;
#X obj 126 52 t b b b;
#X obj 126 198 prepend write;
#X obj 297 129 inlet;
#X obj 126 158 cyclone/sprintf %s/%s-%s.brkp;
#X obj 211 103 makesymbol \$1-\$2;
#X connect 0 0 3 0;
#X connect 2 0 6 0;
#X connect 3 0 2 0;
#X connect 3 1 7 0;
#X connect 4 0 1 0;
#X connect 5 0 6 2;
#X connect 6 0 4 0;
#X connect 7 0 6 1;
#X restore 266 496 pd write_file;
#N canvas 0 50 619 300 read_file 0;
#X obj 142 43 inlet;
#X obj 142 244 outlet;
#X obj 142 151 tof/path;
#X obj 142 66 t b b b;
#X obj 142 212 prepend read;
#X obj 313 143 inlet;
#X obj 142 172 cyclone/sprintf %s/%s-%s.brkp;
#X obj 227 117 makesymbol \$1-\$2;
#X connect 0 0 3 0;
#X connect 2 0 6 0;
#X connect 3 0 2 0;
#X connect 3 1 7 0;
#X connect 4 0 1 0;
#X connect 5 0 6 2;
#X connect 6 0 4 0;
#X connect 7 0 6 1;
#X restore 86 452 pd read_file;
#X obj 422 82 inlet;
#X obj 206 76 t b b b;
#X obj 336 149 makesymbol \$1-\$2;
#X obj 251 209 cyclone/sprintf %s/%s-%s.brkp;
#X connect 0 0 18 0;
#X connect 5 0 6 0;
#X connect 5 1 14 0;
#X connect 6 0 19 0;
#X connect 7 0 12 1;
#X connect 8 0 20 0;
#X connect 10 0 6 0;
#X connect 12 0 8 0;
#X connect 12 1 5 0;
#X connect 13 0 24 0;
#X connect 14 0 16 0;
#X connect 15 0 4 0;
#X connect 16 0 15 0;
#X connect 17 0 8 0;
#X connect 18 0 22 0;
#X connect 19 0 3 0;
#X connect 20 0 3 0;
#X connect 21 0 19 1;
#X connect 21 0 20 1;
#X connect 21 0 24 2;
#X connect 22 0 12 0;
#X connect 22 1 13 0;
#X connect 22 2 23 0;
#X connect 23 0 24 1;
#X connect 24 0 7 0;
#X restore 430 496 pd open_save-file;
#X obj 757 396 s \$0-dump_BRP4_PRESETS;
#X obj 178 271 r \$0-dump_BRP4_PRESETS;
#X obj 870 149 declare -stdlib iemlib/iemlib2;
#X obj 870 168 declare -stdlib iemlib/iemlib1;
#X obj 592 61 init;
#X obj 430 401 init;
#X obj 870 130 declare -lib tof/breakpoints;
#X obj 870 187 declare -lib cyclone;
#X obj 870 206 declare -stdlib zexy;
#X obj 87 357 breakpoints 190 105;
#X obj 39 312 bng 15 250 50 0 empty empty empty 17 7 0 10 -262144 -1
-1;
#X obj 178 614 s \$0-env_2_store;
#X obj 647 403 r \$0-env_2_store;
#X obj 178 467 nbx 5 10 10 1e+37 0 0 empty \$0-BRP-DUR_PresetCallback
DURATION 55 6 0 10 -4032 -1 -258113 10 256;
#X msg 178 538 duration \$1;
#X obj 178 591 list append;
#X obj 178 294 t b b;
#X obj 254 301 bng 15 250 50 0 empty empty empty 17 7 0 10 -262144
-1 -1;
#X obj 241 570 prepend env;
#X obj 85 297 t b b;
#X obj 575 536 list split 2;
#X obj 575 558 route list;
#X obj 575 579 route duration;
#X obj 669 558 route list;
#X obj 669 579 route env;
#X obj 142 215 r \$0-BRP-ENV_PresetCallback;
#X obj 575 623 s \$0-BRP-DUR_PresetCallback;
#X obj 669 602 send \$0-BRP-ENV_PresetCallback;
#X obj 646 333 r PRE-MANAGER-update-number_STORE-\$1;
#X obj 631 358 int;
#X obj 631 379 t b b f b;
#X obj 370 273 int;
#X obj 133 468 bng 9 250 50 0 \$0-send-reset-brp empty ENVS 11 5 0
9 -4032 -258113 -228856;
#X msg 133 516 open;
#X obj 110 564 s \$0-op;
#X obj 675 496 r \$0-op;
#X obj 590 299 r PRE-MANAGER-update-number_ReCALL-\$1;
#X obj 575 354 i;
#X obj 98 43 r PRE-MANAGER-update-number_STORE-\$1;
#X text 744 621 <- duration GUI;
#X obj 430 437 t b b;
#X obj 592 166 cyclone/sprintf brp-%s-%s-%d;
#X obj 592 84 t b b b;
#X obj 674 125 GetParent;
#X obj 479 465 GetParent;
#X connect 1 0 14 0;
#X connect 3 0 6 0;
#X connect 4 0 27 0;
#X connect 5 0 2 0;
#X connect 6 0 4 0;
#X connect 6 1 11 0;
#X connect 6 1 70 0;
#X connect 8 0 9 0;
#X connect 9 0 5 1;
#X connect 10 0 4 1;
#X connect 11 0 74 2;
#X connect 12 0 74 0;
#X connect 13 0 52 0;
#X connect 14 0 62 0;
#X connect 14 0 64 0;
#X connect 14 1 37 0;
#X connect 15 0 5 0;
#X connect 15 1 9 0;
#X connect 17 0 16 0;
#X connect 18 0 17 0;
#X connect 19 0 17 0;
#X connect 23 0 42 0;
#X connect 24 0 42 0;
#X connect 26 0 24 0;
#X connect 27 0 64 1;
#X connect 28 0 53 0;
#X connect 29 0 30 1;
#X connect 30 0 28 0;
#X connect 31 0 30 0;
#X connect 32 0 28 0;
#X connect 34 0 49 0;
#X connect 37 0 75 0;
#X connect 38 0 73 0;
#X connect 42 0 20 0;
#X connect 42 1 21 0;
#X connect 42 1 51 0;
#X connect 42 2 22 0;
#X connect 43 0 42 0;
#X connect 45 0 31 1;
#X connect 46 0 47 0;
#X connect 47 0 48 0;
#X connect 47 0 42 0;
#X connect 48 0 44 0;
#X connect 49 0 46 0;
#X connect 49 1 23 0;
#X connect 50 0 49 0;
#X connect 51 0 48 1;
#X connect 52 0 42 0;
#X connect 52 1 46 0;
#X connect 53 0 54 0;
#X connect 53 1 56 0;
#X connect 54 0 55 0;
#X connect 55 0 59 0;
#X connect 56 0 57 0;
#X connect 57 0 60 0;
#X connect 58 0 42 0;
#X connect 61 0 62 1;
#X connect 62 0 63 0;
#X connect 63 0 32 2;
#X connect 63 1 31 0;
#X connect 63 2 29 0;
#X connect 63 3 33 0;
#X connect 64 0 15 0;
#X connect 65 0 66 0;
#X connect 66 0 67 0;
#X connect 68 0 28 0;
#X connect 69 0 70 1;
#X connect 70 0 28 0;
#X connect 71 0 27 0;
#X connect 73 0 32 0;
#X connect 73 1 77 0;
#X connect 74 0 8 0;
#X connect 74 0 10 0;
#X connect 75 0 12 0;
#X connect 75 1 76 0;
#X connect 75 2 11 0;
#X connect 76 0 74 1;
#X connect 77 0 32 1;
#X coords 0 -1 1 1 206 130 2 80 350;
