#N canvas 263 91 1177 783 10;
#X declare -stdlib iemlib/iemlib2;
#X declare -stdlib iemlib/iemlib1;
#X declare -lib tof/breakpoints;
#X declare -lib cyclone;
#X declare -stdlib zexy;
#X obj 84 467 cnv 10 198 11 empty empty empty 20 12 0 14 -1 -66577
0;
#X obj 415 407 s to_Master_preset;
#X obj 433 111 r CallBack-Master;
#N canvas 1100 251 385 415 sym-route 0;
#X obj 50 34 inlet;
#X obj 210 36 inlet;
#X obj 84 376 outlet;
#X obj 49 60 t a a;
#X msg 158 222 1;
#X msg 191 221 0;
#X obj 50 276 spigot;
#X obj 50 322 list split 1;
#X obj 84 346 list trim;
#X text 48 13 message;
#X text 210 17 selector;
#X obj 159 276 spigot;
#X obj 192 254 == 0;
#X obj 165 377 outlet;
#X obj 121 100 list split 1;
#X obj 122 122 route symbol;
#X obj 159 186 select ___undefined___;
#X text 183 325 route with variable symbol arg.;
#X connect 0 0 3 0;
#X connect 1 0 16 1;
#X connect 3 0 6 0;
#X connect 3 0 11 0;
#X connect 3 1 14 0;
#X connect 4 0 6 1;
#X connect 4 0 12 0;
#X connect 5 0 6 1;
#X connect 5 0 12 0;
#X connect 6 0 7 0;
#X connect 7 1 8 0;
#X connect 8 0 2 0;
#X connect 11 0 13 0;
#X connect 12 0 11 1;
#X connect 14 0 15 0;
#X connect 15 0 16 0;
#X connect 15 1 5 0;
#X connect 16 0 4 0;
#X connect 16 1 5 0;
#X restore 433 247 pd sym-route;
#X obj 415 385 cyclone/prepend;
#X obj 433 159 t a b;
#X text 527 248 <- credit to Thomas Grill. Thank You!!!;
#X obj 592 220 cyclone/prepend symbol;
#X obj 785 176 i \$2;
#X obj 592 144 symbol \$1;
#X obj 68 58 inlet;
#X obj 415 327 t a b;
#X obj 961 124 send preAbsCount;
#X obj 961 103 iemguts/canvasindex;
#X obj 961 78 loadbang;
#X obj 948 56 r update_abs_count;
#X obj 85 522 outlet;
#X obj 179 524 outlet;
#X obj 274 521 outlet;
#X msg 213 308 dump;
#X msg 47 225 0 50 1 50 0;
#X obj 87 467 bng 9 250 50 0 \$0-send-reset-brp empty RESET 11 5 0
9 -4032 -258113 -228856;
#X obj 15 185 r \$0-send-reset-brp;
#X obj 433 279 nbx 3 11 -1e+37 1e+37 0 0 empty empty empty 0 -8 0 10
-191407 -1 -1 0 256;
#X obj 640 578 cyclone/coll;
#C restore;
#X msg 762 480 store \$1;
#X obj 716 503 prepend;
#X obj 716 463 list;
#N canvas 168 53 1025 697 open_save-file 0;
#X obj 206 22 inlet;
#X text 354 296 file doesn't exist;
#X text 106 271 file exists;
#X obj 86 577 outlet OPEN --- SAVE;
#X obj 404 383 print -n;
#X obj 266 294 route error;
#X obj 266 366 bang;
#X obj 251 233 prepend symbol;
#X obj 86 340 bang;
#X text 520 483 checks if file exists \; it creates it if it doesn't
exist \; it opens it if the file already exists;
#X obj 556 89 inlet;
#X text 594 87 saves the file each time a new preset is recorded \,
updating the file in disk;
#X obj 206 265 hcs/stat;
#X obj 251 188 tof/path;
#X obj 404 323 b;
#X obj 404 363 list trim;
#X obj 404 343 makesymbol -----CREATING_BRP_MEM_FILE_\$1-\$2-----;
#X obj 91 307 bng 15 250 50 0 empty empty empty 17 7 0 10 -262144 -1
-1;
#X obj 206 51 del 100;
#N canvas 0 50 500 300 write_file 0;
#X obj 126 29 inlet;
#X obj 126 230 outlet;
#X obj 126 137 tof/path;
#X obj 126 52 t b b b;
#X obj 126 198 prepend write;
#X obj 297 129 inlet;
#X obj 126 158 cyclone/sprintf %s/%s-%s.brkp;
#X obj 211 103 makesymbol \$1-\$2;
#X connect 0 0 3 0;
#X connect 2 0 6 0;
#X connect 3 0 2 0;
#X connect 3 1 7 0;
#X connect 4 0 1 0;
#X connect 5 0 6 2;
#X connect 6 0 4 0;
#X connect 7 0 6 1;
#X restore 266 496 pd write_file;
#N canvas 0 50 619 300 read_file 0;
#X obj 142 43 inlet;
#X obj 142 244 outlet;
#X obj 142 151 tof/path;
#X obj 142 66 t b b b;
#X obj 142 212 prepend read;
#X obj 313 143 inlet;
#X obj 142 172 cyclone/sprintf %s/%s-%s.brkp;
#X obj 227 117 makesymbol \$1-\$2;
#X connect 0 0 3 0;
#X connect 2 0 6 0;
#X connect 3 0 2 0;
#X connect 3 1 7 0;
#X connect 4 0 1 0;
#X connect 5 0 6 2;
#X connect 6 0 4 0;
#X connect 7 0 6 1;
#X restore 86 452 pd read_file;
#X obj 422 82 inlet;
#X obj 206 76 t b b b;
#X obj 336 149 makesymbol \$1-\$2;
#X obj 251 209 cyclone/sprintf %s/%s-%s.brkp;
#X connect 0 0 18 0;
#X connect 5 0 6 0;
#X connect 5 1 14 0;
#X connect 6 0 19 0;
#X connect 7 0 12 1;
#X connect 8 0 20 0;
#X connect 10 0 6 0;
#X connect 12 0 8 0;
#X connect 12 1 5 0;
#X connect 13 0 24 0;
#X connect 14 0 16 0;
#X connect 15 0 4 0;
#X connect 16 0 15 0;
#X connect 17 0 8 0;
#X connect 18 0 22 0;
#X connect 19 0 3 0;
#X connect 20 0 3 0;
#X connect 21 0 19 1;
#X connect 21 0 20 1;
#X connect 21 0 24 2;
#X connect 22 0 12 0;
#X connect 22 1 13 0;
#X connect 22 2 23 0;
#X connect 23 0 24 1;
#X connect 24 0 7 0;
#X restore 393 561 pd open_save-file;
#X obj 899 425 s \$0-dump_BRP4_PRESETS;
#X obj 181 257 r \$0-dump_BRP4_PRESETS;
#X obj 902 190 declare -stdlib iemlib/iemlib2;
#X obj 902 209 declare -stdlib iemlib/iemlib1;
#X obj 592 69 initbang;
#X obj 393 440 initbang;
#X obj 902 171 declare -lib tof/breakpoints;
#X obj 902 228 declare -lib cyclone;
#X obj 902 247 declare -stdlib zexy;
#X obj 87 357 breakpoints 190 105;
#X obj 178 643 s \$0-env_2_store;
#X obj 741 432 r \$0-env_2_store;
#X obj 175 467 nbx 5 10 10 1e+37 0 0 empty \$0-BRP-DUR_PresetCallback
DURATION 55 6 0 10 -4032 -1 -258113 1000 256;
#X msg 178 567 duration \$1;
#X obj 178 620 list append;
#X obj 181 280 t b b;
#X obj 241 599 prepend env;
#X obj 88 283 t b b;
#X obj 640 601 list split 2;
#X obj 640 623 route list;
#X obj 640 644 route duration;
#X obj 754 623 route list;
#X obj 754 644 route env;
#X obj 145 228 r \$0-BRP-ENV_PresetCallback;
#X obj 640 688 s \$0-BRP-DUR_PresetCallback;
#X obj 754 667 send \$0-BRP-ENV_PresetCallback;
#X obj 696 387 int;
#X obj 696 408 t b b f b;
#X obj 415 302 int;
#X obj 136 467 bng 9 250 50 0 empty empty ENVS 11 5 0 9 -4032 -258113
-228856;
#X obj 138 593 s \$0-op;
#X obj 740 561 r \$0-op;
#X obj 640 383 i;
#X text 836 686 <- duration GUI;
#X obj 592 195 cyclone/sprintf brp-%s-%s-%d;
#X obj 451 493 iemguts/canvasname 1;
#X obj 539 513 iemguts/canvasargs 1;
#X obj 451 533 sprintf %s-%s;
#X obj 393 466 t b b b;
#X obj 688 113 iemguts/canvasname 1;
#X obj 776 133 iemguts/canvasargs 1;
#X obj 688 153 sprintf %s-%s;
#X obj 592 88 t b b b b;
#X obj 658 303 r PRE-MANAGER-update-number_ReCALL;
#X obj 714 342 r PRE-MANAGER-update-number_STORE;
#X obj 517 344 symbol;
#X obj 517 364 list trim;
#X obj 292 13 r PRE-MANAGER-update-number_STORE;
#X text 930 576 www.jrsv.net;
#X text 889 563 released under GPL license;
#X text 903 591 Edinburgh - Scotland;
#X text 889 548 (c) J.Rafael Subia V. 2016;
#X obj 15 206 t b b;
#X obj 68 86 route bang dump duration local;
#X text 21 676 argument 0 or 1 \, default is 1 allows the creation
of local presets.;
#X obj 415 37 r SaveMaster;
#N canvas 1165 23 580 312 store-recall 0;
#X obj 108 56 unpack 0 0;
#X obj 108 99 == 1;
#X obj 108 124 sel 0 1;
#X obj 108 234 outlet;
#X text 96 257 this subpatch allows me to manage recording or recalling
of local presets by transforming the 0 or 1 to recall and store keywords
for the [coll] object;
#X obj 108 13 inlet;
#X obj 108 78 pipe 10;
#X obj 277 148 print -----;
#X obj 109 155 i;
#X obj 140 193 i;
#X msg 108 175 store \$1;
#X msg 136 212 recall \$1;
#X connect 0 0 6 0;
#X connect 0 1 8 1;
#X connect 0 1 9 1;
#X connect 1 0 2 0;
#X connect 2 0 8 0;
#X connect 2 1 9 0;
#X connect 5 0 0 0;
#X connect 6 0 1 0;
#X connect 8 0 10 0;
#X connect 9 0 11 0;
#X connect 10 0 3 0;
#X connect 11 0 3 0;
#X restore 232 135 pd store-recall;
#X obj 232 156 route store recall;
#X text 550 33 for local presets \, see help file;
#N canvas 0 23 450 300 -localizer 0;
#X obj 143 117 spigot 1;
#X obj 196 54 \$2;
#X obj 196 33 loadbang;
#X obj 143 37 inlet;
#X obj 143 161 outlet;
#X obj 241 100 r \$0-MODE;
#X text 35 216 if local mode is detected \, then turns of the global
mode;
#X obj 196 75 != 1;
#X connect 0 0 4 0;
#X connect 1 0 7 0;
#X connect 2 0 1 0;
#X connect 3 0 0 0;
#X connect 5 0 0 1;
#X connect 7 0 0 1;
#X restore 415 60 pd -localizer;
#X obj 653 435 print;
#X obj 503 38 cnv 15 15 15 empty empty empty 20 12 0 14 -258113 -66577
0;
#X obj 556 112 cnv 15 15 15 empty empty empty 20 12 0 14 -258113 -66577
0;
#X obj 899 304 cnv 15 15 15 empty empty empty 20 12 0 14 -258113 -66577
0;
#X obj 949 343 cnv 15 15 15 empty empty empty 20 12 0 14 -258113 -66577
0;
#X obj 528 13 cnv 15 15 15 empty empty empty 20 12 0 14 -258113 -66577
0;
#X obj 341 136 cnv 15 15 15 empty empty empty 20 12 0 14 -4160 -66577
0;
#X obj 363 157 cnv 15 15 15 empty empty empty 20 12 0 14 -4160 -66577
0;
#X obj 624 579 cnv 15 15 15 empty empty empty 20 12 0 14 -4160 -66577
0;
#X obj 680 409 cnv 15 15 15 empty empty empty 20 12 0 14 -4160 -66577
0;
#X obj 293 494 i;
#N canvas 53 632 450 300 -turns 0;
#X obj 143 37 inlet;
#X obj 143 161 outlet;
#X obj 192 78 t b;
#X obj 192 125 s \$0-MODE;
#X msg 192 103 0;
#X connect 0 0 1 0;
#X connect 0 0 2 0;
#X connect 2 0 4 0;
#X connect 4 0 3 0;
#X restore 232 114 pd -turns on localizers;
#N canvas 0 23 450 300 -localizer 0;
#X obj 143 117 spigot 1;
#X obj 196 54 \$2;
#X obj 196 33 loadbang;
#X obj 143 37 inlet;
#X obj 143 161 outlet;
#X obj 241 100 r \$0-MODE;
#X text 35 216 if local mode is detected \, then turns of the global
mode;
#X obj 196 75 != 1;
#X connect 0 0 4 0;
#X connect 1 0 7 0;
#X connect 2 0 1 0;
#X connect 3 0 0 0;
#X connect 5 0 0 1;
#X connect 7 0 0 1;
#X restore 292 38 pd -localizer;
#N canvas 0 23 450 300 -localizer 0;
#X obj 143 117 spigot 1;
#X obj 196 54 \$2;
#X obj 196 33 loadbang;
#X obj 143 37 inlet;
#X obj 143 161 outlet;
#X obj 241 100 r \$0-MODE;
#X text 35 216 if local mode is detected \, then turns of the global
mode;
#X obj 196 75 != 1;
#X connect 0 0 4 0;
#X connect 1 0 7 0;
#X connect 2 0 1 0;
#X connect 3 0 0 0;
#X connect 5 0 0 1;
#X connect 7 0 0 1;
#X restore 433 135 pd -localizer;
#N canvas 0 23 450 300 -localizer 0;
#X obj 143 117 spigot 1;
#X obj 196 54 \$2;
#X obj 196 33 loadbang;
#X obj 143 37 inlet;
#X obj 143 161 outlet;
#X obj 241 100 r \$0-MODE;
#X text 35 216 if local mode is detected \, then turns of the global
mode;
#X obj 196 75 != 1;
#X connect 0 0 4 0;
#X connect 1 0 7 0;
#X connect 2 0 1 0;
#X connect 3 0 0 0;
#X connect 5 0 0 1;
#X connect 7 0 0 1;
#X restore 658 322 pd -localizer;
#N canvas 0 23 450 300 -localizer 0;
#X obj 143 117 spigot 1;
#X obj 196 54 \$2;
#X obj 196 33 loadbang;
#X obj 143 37 inlet;
#X obj 143 161 outlet;
#X obj 241 100 r \$0-MODE;
#X text 35 216 if local mode is detected \, then turns of the global
mode;
#X obj 196 75 != 1;
#X connect 0 0 4 0;
#X connect 1 0 7 0;
#X connect 2 0 1 0;
#X connect 3 0 0 0;
#X connect 5 0 0 1;
#X connect 7 0 0 1;
#X restore 714 362 pd -localizer;
#X obj 316 495 cnv 15 15 15 empty empty empty 20 12 0 14 -4160 -66577
0;
#X obj 297 174 cnv 15 15 15 empty empty empty 20 12 0 14 -4160 -66577
0;
#X obj 232 172 cnv 15 15 15 empty empty empty 20 12 0 14 -4160 -66577
0;
#X msg 716 532 writeagain;
#X text 222 757 fix save when new preset is saved;
#X obj 663 477 del 10;
#X msg 138 541 open \, sort -1 -1;
#X msg 803 509 open \, sort -1 -1;
#X connect 2 0 102 0;
#X connect 3 0 23 0;
#X connect 4 0 1 0;
#X connect 5 0 3 0;
#X connect 5 1 8 0;
#X connect 5 1 61 0;
#X connect 7 0 3 1;
#X connect 7 0 74 1;
#X connect 8 0 63 2;
#X connect 9 0 63 0;
#X connect 10 0 82 0;
#X connect 11 0 4 0;
#X connect 11 1 74 0;
#X connect 13 0 12 0;
#X connect 14 0 13 0;
#X connect 15 0 13 0;
#X connect 19 0 38 0;
#X connect 20 0 38 0;
#X connect 22 0 81 0;
#X connect 23 0 57 1;
#X connect 24 0 47 0;
#X connect 25 0 26 1;
#X connect 26 0 24 0;
#X connect 27 0 26 0;
#X connect 28 0 24 0;
#X connect 30 0 44 0;
#X connect 33 0 71 0;
#X connect 34 0 67 0;
#X connect 38 0 16 0;
#X connect 38 1 17 0;
#X connect 38 1 45 0;
#X connect 38 2 18 0;
#X connect 38 2 19 0;
#X connect 40 0 27 1;
#X connect 41 0 42 0;
#X connect 41 0 19 0;
#X connect 42 0 43 0;
#X connect 42 0 38 0;
#X connect 43 0 39 0;
#X connect 44 0 41 0;
#X connect 44 1 19 0;
#X connect 45 0 43 1;
#X connect 46 0 38 0;
#X connect 46 1 41 0;
#X connect 47 0 48 0;
#X connect 47 1 50 0;
#X connect 48 0 49 0;
#X connect 49 0 53 0;
#X connect 50 0 51 0;
#X connect 51 0 54 0;
#X connect 52 0 38 0;
#X connect 55 0 56 0;
#X connect 56 0 28 2;
#X connect 56 0 110 0;
#X connect 56 1 27 0;
#X connect 56 2 25 0;
#X connect 56 3 29 0;
#X connect 57 0 11 0;
#X connect 58 0 111 0;
#X connect 60 0 24 0;
#X connect 61 0 24 0;
#X connect 61 0 89 0;
#X connect 63 0 7 0;
#X connect 64 0 66 0;
#X connect 65 0 66 1;
#X connect 66 0 28 1;
#X connect 67 0 28 0;
#X connect 67 1 64 0;
#X connect 67 2 65 0;
#X connect 68 0 70 0;
#X connect 69 0 70 1;
#X connect 70 0 63 1;
#X connect 71 0 9 0;
#X connect 71 1 68 0;
#X connect 71 2 69 0;
#X connect 71 3 8 0;
#X connect 72 0 103 0;
#X connect 73 0 104 0;
#X connect 74 0 75 0;
#X connect 75 0 4 1;
#X connect 76 0 101 0;
#X connect 81 0 19 0;
#X connect 81 1 20 0;
#X connect 82 0 46 0;
#X connect 82 1 19 0;
#X connect 82 2 41 0;
#X connect 82 3 100 0;
#X connect 84 0 88 0;
#X connect 85 0 86 0;
#X connect 86 0 56 0;
#X connect 86 1 99 0;
#X connect 88 0 55 0;
#X connect 88 0 57 0;
#X connect 99 0 24 0;
#X connect 100 0 85 0;
#X connect 101 0 23 0;
#X connect 102 0 5 0;
#X connect 103 0 61 1;
#X connect 104 0 55 1;
#X connect 108 0 24 0;
#X connect 110 0 108 0;
#X connect 111 0 59 0;
#X connect 112 0 24 0;
#X coords 0 -1 1 1 198 125 2 84 354;
