#N canvas 162 66 764 537 10;
#X declare -lib cyclone;
#X declare -stdlib iemlib/iemlib1;
#X declare -stdlib iemlib/iemlib2;
#X declare -stdlib zexy;
#X obj 236 492 send;
#X obj 255 183 i;
#X obj 282 183 + 1;
#X obj 574 369 symbol;
#X msg 270 155 0;
#N canvas 602 196 692 514 read_number_memory 1;
#X obj 227 335 expr if($f1 > $f2 \, $f1 \, $f2);
#X text 415 336 <- like cyclone/peak;
#X obj 528 212 inlet;
#X obj 494 69 declare -lib cyclone;
#X obj 494 96 declare -stdlib iemlib/iemlib1;
#X obj 494 123 declare -stdlib iemlib/iemlib2;
#X obj 246 459 \$3;
#X obj 227 383 prepend \$1;
#X obj 227 407 list;
#X floatatom 528 239 5 0 0 0 - - -, f 5;
#X obj 125 124 symbol \$1;
#X obj 227 357 t a;
#X obj 125 11 inlet;
#X obj 227 268 list trim;
#X obj 227 290 route \$1;
#X obj 125 317 outlet;
#X obj 125 197 == -1;
#X obj 125 224 sel 1;
#X msg 125 246 0;
#X obj 227 218 \$3;
#X obj 494 150 declare -stdlib zexy;
#X obj 188 126 cyclone/prepend symbol;
#X obj 125 77 t b b;
#X obj 125 148 text search;
#X obj 227 487 text set;
#X obj 227 430 t a b b;
#X obj 286 467 cyclone/prepend symbol;
#X obj 272 222 cyclone/prepend symbol;
#X obj 227 245 text get;
#X obj 125 169 t a b b;
#X obj 272 202 makesymbol \$2-GUI-amount;
#X obj 286 447 makesymbol \$2-GUI-amount;
#X obj 188 106 makesymbol \$2-GUI-amount;
#X obj 154 43 r \$2-amounts-LOADED;
#X connect 0 0 11 0;
#X connect 2 0 0 0;
#X connect 2 0 9 0;
#X connect 6 0 24 1;
#X connect 7 0 8 0;
#X connect 8 0 25 0;
#X connect 10 0 23 0;
#X connect 11 0 7 0;
#X connect 11 0 0 1;
#X connect 12 0 22 0;
#X connect 13 0 14 0;
#X connect 14 0 15 0;
#X connect 14 0 0 0;
#X connect 16 0 17 0;
#X connect 17 0 18 0;
#X connect 18 0 15 0;
#X connect 18 0 0 0;
#X connect 19 0 28 0;
#X connect 21 0 23 1;
#X connect 22 0 10 0;
#X connect 22 1 32 0;
#X connect 23 0 29 0;
#X connect 25 0 24 0;
#X connect 25 1 6 0;
#X connect 25 2 31 0;
#X connect 26 0 24 3;
#X connect 27 0 28 3;
#X connect 28 0 13 0;
#X connect 29 0 16 0;
#X connect 29 1 19 0;
#X connect 29 2 30 0;
#X connect 30 0 27 0;
#X connect 31 0 26 0;
#X connect 32 0 21 0;
#X connect 33 0 22 0;
#X restore 50 174 pd read_number_memory;
#X obj 236 260 i;
#X obj 263 260 + 1;
#X msg 251 232 0;
#X obj 50 200 + 1;
#X obj 236 282 % 10;
#X obj 607 248 inlet window_name;
#X obj 432 135 inlet argt4ID;
#X obj 236 31 inlet bang2create;
#X obj 236 353 sprintf obj %d 300 \$1_pre %s %d;
#X obj 236 120 t b b b;
#X obj 236 58 t b b;
#X obj 236 325 + 50;
#X obj 236 302 * 30;
#X obj 218 28 bng 15 250 50 0 empty empty empty 17 7 0 10 -262144 -1
-1;
#X text 470 39 1st argument prefix of object to create \; 2nd argument
unique ID from parent \; 3rd order number (do not change);
#X connect 1 0 2 0;
#X connect 1 0 5 1;
#X connect 1 0 14 2;
#X connect 2 0 1 1;
#X connect 3 0 0 1;
#X connect 4 0 1 1;
#X connect 5 0 9 0;
#X connect 6 0 7 0;
#X connect 6 0 10 0;
#X connect 7 0 6 1;
#X connect 8 0 6 1;
#X connect 9 0 6 1;
#X connect 9 0 1 1;
#X connect 10 0 18 0;
#X connect 11 0 3 1;
#X connect 11 0 0 1;
#X connect 12 0 14 1;
#X connect 13 0 16 0;
#X connect 14 0 0 0;
#X connect 15 0 6 0;
#X connect 15 1 1 0;
#X connect 15 2 3 0;
#X connect 16 0 15 0;
#X connect 16 1 5 0;
#X connect 17 0 14 0;
#X connect 18 0 17 0;
#X connect 19 0 16 0;
