#N canvas 95 33 806 685 10;
#X declare -lib cyclone;
#X declare -stdlib iemlib/iemlib1;
#X declare -stdlib iemlib/iemlib2;
#X obj 236 492 send;
#X obj 255 183 i;
#X obj 282 183 + 1;
#X obj 574 369 symbol;
#X msg 270 155 0;
#N canvas 0 130 1078 514 read_number_memory 0;
#X text 237 297 file exists;
#X obj 382 187 cyclone/sprintf %s/%s;
#X obj 337 123 t b b b;
#X obj 337 291 hcs/stat;
#X obj 382 166 tof/path;
#X obj 376 357 cyclone/prepend read;
#X obj 337 313 t b b b;
#X obj 533 445 textfile;
#X msg 356 381 rewind;
#X obj 620 477 outlet;
#X msg 533 337 0;
#X obj 337 32 bng 15 250 50 0 empty empty empty 17 7 0 10 -262144 -1
-1;
#X obj 356 32 inlet;
#X obj 741 129 expr if($f1 > $f2 \, $f1 \, $f2);
#X msg 768 235 set \$1;
#X text 929 130 <- like cyclone/peak;
#X obj 741 151 t b a;
#X obj 741 199 cyclone/prepend write;
#X obj 741 43 inlet;
#X obj 505 156 symbol \$1-\$2-amount.txt;
#X obj 741 178 symbol \$1-\$2-amount.txt;
#X obj 376 337 symbol \$1-\$2-amount.txt;
#X obj 787 305 declare -lib cyclone;
#X obj 382 211 prepend symbol;
#X obj 786 332 declare -stdlib iemlib/iemlib1;
#X obj 786 360 declare -stdlib iemlib/iemlib2;
#X obj 337 65 init;
#X obj 337 97 del 10;
#X connect 1 0 23 0;
#X connect 2 0 3 0;
#X connect 2 1 4 0;
#X connect 2 2 19 0;
#X connect 3 0 6 0;
#X connect 3 1 10 0;
#X connect 4 0 1 0;
#X connect 5 0 7 0;
#X connect 6 0 7 0;
#X connect 6 1 8 0;
#X connect 6 2 21 0;
#X connect 7 0 9 0;
#X connect 8 0 7 0;
#X connect 10 0 9 0;
#X connect 11 0 26 0;
#X connect 12 0 26 0;
#X connect 13 0 16 0;
#X connect 14 0 7 0;
#X connect 16 0 20 0;
#X connect 16 1 14 0;
#X connect 16 1 13 1;
#X connect 17 0 7 0;
#X connect 18 0 13 0;
#X connect 19 0 1 1;
#X connect 20 0 17 0;
#X connect 21 0 5 0;
#X connect 23 0 3 1;
#X connect 26 0 27 0;
#X connect 27 0 2 0;
#X restore 62 138 pd read_number_memory;
#X obj 236 260 i;
#X obj 263 260 + 1;
#X msg 251 232 0;
#X obj 62 164 + 1;
#X obj 236 282 % 10;
#X obj 607 248 inlet window_name;
#X obj 432 135 inlet argt4ID;
#X obj 236 31 inlet bang2create;
#X text 520 558 1st argument prefix of object to create \; 2nd argument
unique ID from parent;
#X obj 236 120 t b b b;
#X obj 236 58 t b b;
#X floatatom 94 163 5 0 0 0 - - -, f 5;
#X obj 62 75 init;
#X obj 236 325 + 50;
#X obj 236 302 * 30;
#X obj 218 28 bng 15 250 50 0 empty empty empty 17 7 0 10 -262144 -1
-1;
#X obj 236 353 sprintf obj %d 300 PresetManager %s %d;
#X connect 1 0 2 0;
#X connect 1 0 5 1;
#X connect 1 0 22 2;
#X connect 2 0 1 1;
#X connect 3 0 0 1;
#X connect 4 0 1 1;
#X connect 5 0 9 0;
#X connect 5 0 17 0;
#X connect 6 0 7 0;
#X connect 6 0 10 0;
#X connect 7 0 6 1;
#X connect 8 0 6 1;
#X connect 9 0 6 1;
#X connect 9 0 1 1;
#X connect 10 0 20 0;
#X connect 11 0 3 1;
#X connect 11 0 0 1;
#X connect 12 0 22 1;
#X connect 13 0 16 0;
#X connect 15 0 6 0;
#X connect 15 1 1 0;
#X connect 15 2 3 0;
#X connect 16 0 15 0;
#X connect 16 1 5 0;
#X connect 18 0 5 0;
#X connect 19 0 22 0;
#X connect 20 0 19 0;
#X connect 21 0 16 0;
#X connect 22 0 0 0;
