#N canvas 385 187 450 300 10;
#X obj 137 129 iemguts/canvasname 1;
#X obj 212 149 iemguts/canvasargs 1;
#X obj 137 169 sprintf %s:%s;
#X obj 137 108 t b b;
#X obj 137 80 inlet;
#X obj 137 195 outlet;
#X connect 0 0 2 0;
#X connect 1 0 2 1;
#X connect 2 0 5 0;
#X connect 3 0 0 0;
#X connect 3 1 1 0;
#X connect 4 0 3 0;
