#N canvas 183 14 934 652 10;
#X declare -lib cyclone;
#X declare -lib hcs/window_name;
#X declare -stdlib zexy;
#X declare -stdlib iemlib/iemlib2;
#X obj 661 37 r \$0-window_name;
#X obj 655 11 r \$0-uniqueID;
#X obj 180 216 s \$0-window_name;
#X obj 41 243 s \$0-uniqueID;
#X obj 424 43 r \$0-createBNG;
#X obj 60 100 cnv 15 320 60 empty empty empty 20 12 0 14 -1 -66577
0;
#X obj 65 105 cnv 15 310 50 empty empty GUI/creator 225 38 0 12 -233017
-159808 0;
#X obj 67 111 bng 15 250 50 0 \$0-createBNG empty TGL 17 7 0 10 -257472
-225271 -1;
#X obj 182 111 bng 15 250 50 0 \$0-createVSL empty VSL 17 7 0 10 -257472
-225271 -1;
#X obj 105 111 bng 15 250 50 0 \$0-createNBX empty NBX 17 7 0 10 -257472
-225271 -1;
#X obj 144 111 bng 15 250 50 0 \$0-createHSL empty HSL 17 7 0 10 -257472
-225271 -1;
#X obj 220 111 bng 15 250 50 0 \$0-createVRD empty VRD 17 7 0 10 -257472
-225271 -1;
#X obj 259 111 bng 15 250 50 0 \$0-createHRD empty HRD 17 7 0 10 -257472
-225271 -1;
#X obj 298 111 bng 15 250 50 0 \$0-createKNB empty KNB 17 7 0 10 -257472
-225271 -1;
#X obj 67 135 cnv 15 100 15 empty empty ID.=.\$1 5 7 0 14 -233017 -4160
0;
#X obj 424 79 r \$0-createNBX;
#X obj 41 221 cyclone/prepend symbol;
#X obj 424 118 r \$0-createHSL;
#X obj 424 156 r \$0-createVSL;
#X obj 425 193 r \$0-createVRD;
#X obj 425 230 r \$0-createHRD;
#X obj 425 307 r \$0-createBRP;
#X obj 337 111 bng 15 250 50 0 \$0-createBRP empty BRP 17 7 0 10 -257472
-225271 -1;
#X obj 425 270 r \$0-createKNB;
#X obj 41 178 init;
#X obj 29 10 declare -lib cyclone;
#X obj 29 29 declare -lib hcs/window_name;
#X obj 180 195 window_name 1;
#X obj 29 48 declare -stdlib zexy;
#X obj 41 199 makesymbol \$1;
#X text 242 38 arguments unique ID;
#X obj 94 385 cyclone/sprintf %s/%s;
#X obj 49 337 t b b b;
#X obj 49 430 hcs/stat;
#X obj 94 364 tof/path;
#X obj 94 409 prepend symbol;
#X obj 217 354 symbol \$1-GUI-amount.txt;
#X text 69 598 reads the file if exists \, if not \, creates it;
#X obj 49 317 del 100;
#X obj 235 447 bang;
#X obj 531 60 cr_gui tgl \$1 0;
#X obj 29 67 declare -stdlib iemlib/iemlib2;
#X obj 49 298 init;
#X obj 370 401 del 10;
#X obj 49 533 text define \$1-GUI-amount;
#X obj 49 457 t b b;
#X obj 49 557 send \$1-amounts-LOADED;
#X obj 525 96 cr_gui nbx \$1 1;
#X obj 525 135 cr_gui hsl \$1 2;
#X obj 525 173 cr_gui vsl \$1 3;
#X obj 526 210 cr_gui vrd \$1 4;
#X obj 526 247 cr_gui hrd \$1 5;
#X obj 526 287 cr_gui knb \$1 6;
#X obj 526 324 cr_gui brp \$1 7;
#X obj 416 548 print -n;
#X obj 416 525 list trim 1;
#X obj 416 469 symbol -------------CREATING___\$1-GUI-amount------------
;
#X obj 135 303 bng 15 250 50 0 empty empty empty 17 7 0 10 -262144
-1 -1;
#X obj 210 414 print;
#N canvas 0 50 450 300 write_file 0;
#X obj 120 113 tof/path;
#X obj 120 139 cyclone/sprintf %s/%s;
#X obj 176 114 symbol \$1-GUI-amount.txt;
#X obj 120 86 t b b;
#X obj 120 65 inlet;
#X obj 120 182 outlet;
#X obj 120 161 cyclone/prepend write;
#X connect 0 0 1 0;
#X connect 1 0 6 0;
#X connect 2 0 1 1;
#X connect 3 0 0 0;
#X connect 3 1 2 0;
#X connect 4 0 3 0;
#X connect 6 0 5 0;
#X restore 235 507 pd write_file;
#N canvas 0 50 450 300 read_file 0;
#X obj 120 113 tof/path;
#X obj 120 139 cyclone/sprintf %s/%s;
#X obj 176 114 symbol \$1-GUI-amount.txt;
#X obj 120 86 t b b;
#X obj 120 65 inlet;
#X obj 120 182 outlet;
#X obj 120 161 cyclone/prepend read;
#X connect 0 0 1 0;
#X connect 1 0 6 0;
#X connect 2 0 1 1;
#X connect 3 0 0 0;
#X connect 3 1 2 0;
#X connect 4 0 3 0;
#X connect 6 0 5 0;
#X restore 76 494 pd read_file;
#X connect 0 0 40 2;
#X connect 0 0 47 2;
#X connect 0 0 48 2;
#X connect 0 0 49 2;
#X connect 0 0 50 2;
#X connect 0 0 51 2;
#X connect 0 0 52 2;
#X connect 0 0 53 2;
#X connect 1 0 40 1;
#X connect 1 0 47 1;
#X connect 1 0 48 1;
#X connect 1 0 49 1;
#X connect 1 0 50 1;
#X connect 1 0 51 1;
#X connect 1 0 52 1;
#X connect 1 0 53 1;
#X connect 4 0 40 0;
#X connect 4 0 43 0;
#X connect 15 0 43 0;
#X connect 15 0 47 0;
#X connect 16 0 3 0;
#X connect 17 0 43 0;
#X connect 17 0 48 0;
#X connect 18 0 43 0;
#X connect 18 0 49 0;
#X connect 19 0 43 0;
#X connect 19 0 50 0;
#X connect 20 0 43 0;
#X connect 20 0 51 0;
#X connect 21 0 43 0;
#X connect 21 0 53 0;
#X connect 23 0 43 0;
#X connect 23 0 52 0;
#X connect 24 0 27 0;
#X connect 24 0 29 0;
#X connect 27 0 2 0;
#X connect 29 0 16 0;
#X connect 31 0 35 0;
#X connect 32 0 33 0;
#X connect 32 1 34 0;
#X connect 32 2 36 0;
#X connect 33 0 45 0;
#X connect 33 1 39 0;
#X connect 34 0 31 0;
#X connect 34 0 58 0;
#X connect 35 0 33 1;
#X connect 36 0 31 1;
#X connect 38 0 32 0;
#X connect 39 0 56 0;
#X connect 39 0 59 0;
#X connect 42 0 38 0;
#X connect 43 0 59 0;
#X connect 44 0 46 0;
#X connect 45 0 44 0;
#X connect 45 1 60 0;
#X connect 55 0 54 0;
#X connect 56 0 55 0;
#X connect 57 0 34 0;
#X connect 59 0 44 0;
#X connect 60 0 44 0;
#X coords 0 -1 1 1 320 60 2 60 100;
