#N canvas 287 43 673 641 10;
#X declare -stdlib iemlib/iemlib2;
#X obj 65 1 r SaveMaster;
#X obj 65 603 s to_Master_preset;
#X obj 80 81 r CallBack-Master;
#N canvas 1100 251 385 415 sym-route 0;
#X obj 50 34 inlet;
#X obj 210 36 inlet;
#X obj 84 376 outlet;
#X obj 49 60 t a a;
#X msg 158 222 1;
#X msg 191 221 0;
#X obj 50 276 spigot;
#X obj 50 322 list split 1;
#X obj 84 346 list trim;
#X text 48 13 message;
#X text 210 17 selector;
#X obj 159 276 spigot;
#X obj 192 254 == 0;
#X obj 165 377 outlet;
#X obj 121 100 list split 1;
#X obj 122 122 route symbol;
#X obj 159 186 select ___undefined___;
#X text 183 325 route with variable symbol arg.;
#X connect 0 0 3 0;
#X connect 1 0 16 1;
#X connect 3 0 6 0;
#X connect 3 0 11 0;
#X connect 3 1 14 0;
#X connect 4 0 6 1;
#X connect 4 0 12 0;
#X connect 5 0 6 1;
#X connect 5 0 12 0;
#X connect 6 0 7 0;
#X connect 7 1 8 0;
#X connect 8 0 2 0;
#X connect 11 0 13 0;
#X connect 12 0 11 1;
#X connect 14 0 15 0;
#X connect 15 0 16 0;
#X connect 15 1 5 0;
#X connect 16 0 4 0;
#X connect 16 1 5 0;
#X restore 80 232 pd sym-route;
#X obj 65 581 cyclone/prepend;
#X obj 80 101 t a b;
#X obj 193 478 outlet;
#X text 194 237 <- credit to Thomas Grill. Thank You!!!;
#X obj 287 296 prepend set;
#X msg 152 559 hsl-0--0;
#X obj 287 205 cyclone/prepend symbol;
#X obj 452 156 i \$2;
#X obj 287 89 symbol \$1;
#X obj 80 374 line;
#X obj 153 263 r PreInterpTime;
#X obj 9 96 inlet;
#X obj 9 118 t a b;
#X msg 36 138 0;
#X obj 65 538 t a b;
#X obj 80 349 pack;
#X obj 453 406 send preAbsCount;
#X obj 453 385 iemguts/canvasindex;
#X obj 453 360 loadbang;
#X obj 440 338 r update_abs_count;
#X obj 84 401 hsl 128 15 0 127 0 0 empty empty empty -2 -8 0 10 -216373
-1 -1 1320 1;
#X obj 406 298 declare -stdlib iemlib/iemlib2;
#X obj 287 37 initbang;
#X obj 287 176 cyclone/sprintf hsl-%s-%s-%d;
#X obj 65 20 t b b;
#X obj 369 106 iemguts/canvasname 1;
#X obj 444 126 iemguts/canvasargs 1;
#X obj 369 146 sprintf %s-%s;
#X obj 287 58 t b b b b;
#X text 319 579 www.jrsv.net;
#X text 278 566 released under GPL license;
#X text 292 594 Edinburgh - Scotland;
#X text 278 551 (c) J.Rafael Subia V. 2016;
#X obj 80 292 bondo;
#X obj 140 433 i;
#X obj 518 576 spigot;
#X obj 597 440 int;
#X obj 566 524 i;
#X obj 518 496 t a a b;
#X msg 613 473 6;
#X obj 518 609 print;
#X floatatom 518 427 5 0 0 0 - - -, f 5;
#X obj 551 547 !=;
#X obj 65 442 f;
#X connect 0 0 28 0;
#X connect 2 0 5 0;
#X connect 3 0 37 0;
#X connect 3 0 38 1;
#X connect 4 0 1 0;
#X connect 5 0 3 0;
#X connect 5 1 11 0;
#X connect 8 0 9 0;
#X connect 9 0 4 1;
#X connect 10 0 3 1;
#X connect 11 0 27 2;
#X connect 12 0 27 0;
#X connect 13 0 24 0;
#X connect 14 0 37 1;
#X connect 15 0 16 0;
#X connect 16 0 19 0;
#X connect 16 1 17 0;
#X connect 17 0 19 1;
#X connect 18 0 4 0;
#X connect 18 1 9 0;
#X connect 19 0 13 0;
#X connect 21 0 20 0;
#X connect 22 0 21 0;
#X connect 23 0 21 0;
#X connect 24 0 6 0;
#X connect 24 0 47 1;
#X connect 26 0 32 0;
#X connect 27 0 8 0;
#X connect 27 0 10 0;
#X connect 28 0 47 0;
#X connect 29 0 31 0;
#X connect 30 0 31 1;
#X connect 31 0 27 1;
#X connect 32 0 12 0;
#X connect 32 1 29 0;
#X connect 32 2 30 0;
#X connect 32 3 11 0;
#X connect 37 0 19 0;
#X connect 37 1 19 1;
#X connect 39 0 44 0;
#X connect 41 0 46 1;
#X connect 42 0 39 0;
#X connect 42 1 46 0;
#X connect 42 2 41 0;
#X connect 43 0 41 1;
#X connect 45 0 42 0;
#X connect 46 0 39 1;
#X connect 47 0 18 0;
#X coords 0 -1 1 1 135 17 2 80 400;
