#N canvas 225 77 745 468 10;
#X declare -stdlib iemlib/iemlib2;
#X declare -stdlib iemlib/iemlib1;
#X declare -stdlib zexy;
#X obj 115 346 int;
#X obj 115 27 r SaveMaster;
#X obj 130 78 r CallBack-Master;
#N canvas 1100 251 385 415 sym-route 0;
#X obj 50 34 inlet;
#X obj 210 36 inlet;
#X obj 84 376 outlet;
#X obj 49 60 t a a;
#X msg 158 222 1;
#X msg 191 221 0;
#X obj 50 276 spigot;
#X obj 50 322 list split 1;
#X obj 84 346 list trim;
#X text 48 13 message;
#X text 210 17 selector;
#X obj 159 276 spigot;
#X obj 192 254 == 0;
#X obj 165 377 outlet;
#X obj 121 100 list split 1;
#X obj 122 122 route symbol;
#X obj 159 186 select ___undefined___;
#X text 183 325 route with variable symbol arg.;
#X connect 0 0 3 0;
#X connect 1 0 16 1;
#X connect 3 0 6 0;
#X connect 3 0 11 0;
#X connect 3 1 14 0;
#X connect 4 0 6 1;
#X connect 4 0 12 0;
#X connect 5 0 6 1;
#X connect 5 0 12 0;
#X connect 6 0 7 0;
#X connect 7 1 8 0;
#X connect 8 0 2 0;
#X connect 11 0 13 0;
#X connect 12 0 11 1;
#X connect 14 0 15 0;
#X connect 15 0 16 0;
#X connect 15 1 5 0;
#X connect 16 0 4 0;
#X connect 16 1 5 0;
#X restore 130 188 pd sym-route;
#X obj 115 411 cyclone/prepend;
#X obj 130 98 t a b;
#X obj 167 356 outlet;
#X text 211 188 <- credit to Thomas Grill. Thank You!!!;
#X obj 340 250 prepend set;
#X msg 205 389 interp-time-0;
#X obj 340 159 cyclone/prepend symbol;
#X obj 340 114 symbol \$1;
#X obj 130 300 nbx 5 14 -1e+037 1e+037 0 0 empty empty Int.Time 3 21
0 10 -220671 -4160 -1 0 256;
#X obj 115 46 t b b;
#X obj 115 368 t a b;
#X obj 518 262 send preAbsCount;
#X obj 518 241 iemguts/canvasindex;
#X obj 518 216 loadbang;
#X obj 505 194 r update_abs_count;
#X obj 153 236 inlet;
#X obj 115 433 s to_Master_preset;
#X obj 340 134 cyclone/sprintf interp-time-%s;
#X obj 340 63 init;
#X obj 454 73 declare -stdlib iemlib/iemlib2;
#X obj 454 53 declare -stdlib iemlib/iemlib1;
#X obj 454 33 declare -stdlib zexy;
#X connect 0 0 14 0;
#X connect 1 0 13 0;
#X connect 2 0 5 0;
#X connect 3 0 12 0;
#X connect 4 0 20 0;
#X connect 5 0 3 0;
#X connect 8 0 9 0;
#X connect 9 0 4 1;
#X connect 10 0 3 1;
#X connect 11 0 21 0;
#X connect 12 0 0 1;
#X connect 12 0 6 0;
#X connect 13 0 0 0;
#X connect 13 1 22 0;
#X connect 14 0 4 0;
#X connect 14 1 9 0;
#X connect 16 0 15 0;
#X connect 17 0 16 0;
#X connect 18 0 16 0;
#X connect 19 0 12 0;
#X connect 21 0 8 0;
#X connect 21 0 10 0;
#X connect 22 0 11 0;
#X coords 0 -1 1 1 54 28 2 130 300;
