#N canvas 222 81 833 468 10;
#X declare -stdlib iemlib/iemlib2;
#X declare -stdlib iemlib/iemlib1;
#X declare -stdlib zexy;
#X obj 115 346 int;
#X obj 115 27 r SaveMaster;
#X obj 130 78 r CallBack-Master;
#N canvas 1100 251 385 415 sym-route 0;
#X obj 50 34 inlet;
#X obj 210 36 inlet;
#X obj 84 376 outlet;
#X obj 49 60 t a a;
#X msg 158 222 1;
#X msg 191 221 0;
#X obj 50 276 spigot;
#X obj 50 322 list split 1;
#X obj 84 346 list trim;
#X text 48 13 message;
#X text 210 17 selector;
#X obj 159 276 spigot;
#X obj 192 254 == 0;
#X obj 165 377 outlet;
#X obj 121 100 list split 1;
#X obj 122 122 route symbol;
#X obj 159 186 select ___undefined___;
#X text 183 325 route with variable symbol arg.;
#X connect 0 0 3 0;
#X connect 1 0 16 1;
#X connect 3 0 6 0;
#X connect 3 0 11 0;
#X connect 3 1 14 0;
#X connect 4 0 6 1;
#X connect 4 0 12 0;
#X connect 5 0 6 1;
#X connect 5 0 12 0;
#X connect 6 0 7 0;
#X connect 7 1 8 0;
#X connect 8 0 2 0;
#X connect 11 0 13 0;
#X connect 12 0 11 1;
#X connect 14 0 15 0;
#X connect 15 0 16 0;
#X connect 15 1 5 0;
#X connect 16 0 4 0;
#X connect 16 1 5 0;
#X restore 130 231 pd sym-route;
#X obj 115 411 cyclone/prepend;
#X obj 130 98 t a b;
#X obj 167 356 outlet;
#X text 211 231 <- credit to Thomas Grill. Thank You!!!;
#X obj 340 293 prepend set;
#X msg 205 389 interp-time-0-;
#X obj 340 210 cyclone/prepend symbol;
#X obj 340 165 symbol \$1;
#X obj 130 300 nbx 5 14 -1e+37 1e+37 0 0 empty empty Int.Time 3 21
0 10 -220671 -4160 -1 0 256;
#X obj 115 46 t b b;
#X obj 115 368 t a b;
#X obj 347 416 send preAbsCount;
#X obj 347 395 iemguts/canvasindex;
#X obj 347 370 loadbang;
#X obj 334 348 r update_abs_count;
#X obj 153 279 inlet;
#X obj 115 433 s to_Master_preset;
#X obj 508 425 declare -stdlib iemlib/iemlib2;
#X obj 508 405 declare -stdlib iemlib/iemlib1;
#X obj 508 385 declare -stdlib zexy;
#X obj 340 185 cyclone/sprintf interp-time-%s-%s;
#X obj 568 114 iemguts/canvasname 1;
#X obj 658 134 iemguts/canvasargs 1;
#X obj 568 154 sprintf %s-%s;
#X obj 340 83 t b b b;
#X text 554 288 www.jrsv.net;
#X text 513 275 released under GPL license;
#X text 527 303 Edinburgh - Scotland;
#X text 513 260 (c) J.Rafael Subia V. 2016;
#X obj 340 63 initbang;
#X connect 0 0 14 0;
#X connect 1 0 13 0;
#X connect 2 0 5 0;
#X connect 3 0 12 0;
#X connect 4 0 20 0;
#X connect 5 0 3 0;
#X connect 8 0 9 0;
#X connect 9 0 4 1;
#X connect 10 0 3 1;
#X connect 11 0 24 0;
#X connect 12 0 0 1;
#X connect 12 0 6 0;
#X connect 13 0 0 0;
#X connect 14 0 4 0;
#X connect 14 1 9 0;
#X connect 16 0 15 0;
#X connect 17 0 16 0;
#X connect 18 0 16 0;
#X connect 19 0 12 0;
#X connect 24 0 8 0;
#X connect 24 0 10 0;
#X connect 25 0 27 0;
#X connect 26 0 27 1;
#X connect 27 0 24 1;
#X connect 28 0 11 0;
#X connect 28 1 25 0;
#X connect 28 2 26 0;
#X connect 33 0 28 0;
#X coords 0 -1 1 1 54 28 2 130 300;
