#N canvas 148 317 697 630 10;
#X declare -stdlib iemlib/iemlib2;
#X declare -lib cyclone;
#X declare -lib flatgui/knob;
#X obj 81 401 cnv 15 36 39 empty empty empty 0 0 0 14 -1 -66577 0;
#X obj 82 402 cnv 15 34 37 empty empty empty 20 12 0 14 -233017 -66577
0;
#X obj 65 478 int;
#X obj 65 1 r SaveMaster;
#X obj 65 565 s to_Master_preset;
#X obj 82 112 r CallBack-Master;
#N canvas 1100 251 385 415 sym-route 0;
#X obj 50 34 inlet;
#X obj 210 36 inlet;
#X obj 84 376 outlet;
#X obj 49 60 t a a;
#X msg 158 222 1;
#X msg 191 221 0;
#X obj 50 276 spigot;
#X obj 50 322 list split 1;
#X obj 84 346 list trim;
#X text 48 13 message;
#X text 210 17 selector;
#X obj 159 276 spigot;
#X obj 192 254 == 0;
#X obj 165 377 outlet;
#X obj 121 100 list split 1;
#X obj 122 122 route symbol;
#X obj 159 186 select ___undefined___;
#X text 183 325 route with variable symbol arg.;
#X connect 0 0 3 0;
#X connect 1 0 16 1;
#X connect 3 0 6 0;
#X connect 3 0 11 0;
#X connect 3 1 14 0;
#X connect 4 0 6 1;
#X connect 4 0 12 0;
#X connect 5 0 6 1;
#X connect 5 0 12 0;
#X connect 6 0 7 0;
#X connect 7 1 8 0;
#X connect 8 0 2 0;
#X connect 11 0 13 0;
#X connect 12 0 11 1;
#X connect 14 0 15 0;
#X connect 15 0 16 0;
#X connect 15 1 5 0;
#X connect 16 0 4 0;
#X connect 16 1 5 0;
#X restore 82 220 pd sym-route;
#X obj 65 543 cyclone/prepend;
#X obj 82 132 t a b;
#X obj 136 476 outlet;
#X text 171 221 <- credit to Thomas Grill. Thank You!!!;
#X obj 287 274 prepend set;
#X msg 152 521 knb-0--0;
#X obj 287 193 cyclone/prepend symbol;
#X obj 452 149 i \$2;
#X obj 287 78 symbol \$1;
#X obj 82 370 line;
#X obj 159 280 r PreInterpTime;
#X obj 9 96 inlet;
#X obj 9 168 t a b;
#X msg 36 188 0;
#X obj 65 500 t a b;
#X obj 82 349 pack;
#X obj 453 414 send preAbsCount;
#X obj 453 393 iemguts/canvasindex;
#X obj 453 368 loadbang;
#X obj 440 346 r update_abs_count;
#X obj 82 286 pipe 10;
#X msg 187 347 color 12 12 12;
#X obj 455 278 declare -stdlib iemlib/iemlib2;
#X obj 455 239 declare -lib cyclone;
#X obj 455 258 declare -lib flatgui/knob;
#X obj 83 404 knob 32 32 0 127 0 0 empty empty empty 0 -8 0 8 3.43016e+06
3.43016e+06 3.43016e+06 0 1;
#X obj 287 168 cyclone/sprintf knb-%s-%s-%d;
#X obj 65 20 t b b;
#X obj 369 85 iemguts/canvasname 1;
#X obj 444 105 iemguts/canvasargs 1;
#X obj 369 125 sprintf %s-%s;
#X obj 287 57 t b b b b;
#X text 437 528 www.jrsv.net;
#X text 396 515 released under GPL license;
#X text 410 543 Edinburgh - Scotland;
#X text 396 500 (c) J.Rafael Subia V. 2016;
#X obj 287 37 initbang;
#X connect 2 0 21 0;
#X connect 3 0 34 0;
#X connect 5 0 8 0;
#X connect 6 0 27 0;
#X connect 7 0 4 0;
#X connect 8 0 6 0;
#X connect 8 1 14 0;
#X connect 11 0 12 0;
#X connect 12 0 7 1;
#X connect 13 0 6 1;
#X connect 14 0 33 2;
#X connect 15 0 33 0;
#X connect 16 0 32 0;
#X connect 17 0 22 1;
#X connect 18 0 19 0;
#X connect 19 0 22 0;
#X connect 19 1 20 0;
#X connect 20 0 22 1;
#X connect 21 0 7 0;
#X connect 21 1 12 0;
#X connect 22 0 16 0;
#X connect 24 0 23 0;
#X connect 25 0 24 0;
#X connect 26 0 24 0;
#X connect 27 0 22 0;
#X connect 28 0 32 0;
#X connect 32 0 2 1;
#X connect 32 0 9 0;
#X connect 33 0 11 0;
#X connect 33 0 13 0;
#X connect 34 0 2 0;
#X connect 35 0 37 0;
#X connect 36 0 37 1;
#X connect 37 0 33 1;
#X connect 38 0 15 0;
#X connect 38 1 35 0;
#X connect 38 2 36 0;
#X connect 38 3 14 0;
#X connect 43 0 28 0;
#X connect 43 0 38 0;
#X coords 0 -1 1 1 38 41 2 80 400;
