#N canvas 292 207 1158 695 10;
#X declare -stdlib iemlib/iemlib2;
#X declare -stdlib iemlib/iemlib1;
#X declare -lib cyclone;
#X declare -stdlib zexy;
#X obj 348 6 r SaveMaster;
#X obj 348 404 s to_Master_preset;
#X obj 366 123 r CallBack-Master;
#N canvas 1100 251 385 415 sym-route 0;
#X obj 50 34 inlet;
#X obj 210 36 inlet;
#X obj 84 376 outlet;
#X obj 49 60 t a a;
#X msg 158 222 1;
#X msg 191 221 0;
#X obj 50 276 spigot;
#X obj 50 322 list split 1;
#X obj 84 346 list trim;
#X text 48 13 message;
#X text 210 17 selector;
#X obj 159 276 spigot;
#X obj 192 254 == 0;
#X obj 165 377 outlet;
#X obj 121 100 list split 1;
#X obj 122 122 route symbol;
#X obj 159 186 select ___undefined___;
#X text 183 325 route with variable symbol arg.;
#X connect 0 0 3 0;
#X connect 1 0 16 1;
#X connect 3 0 6 0;
#X connect 3 0 11 0;
#X connect 3 1 14 0;
#X connect 4 0 6 1;
#X connect 4 0 12 0;
#X connect 5 0 6 1;
#X connect 5 0 12 0;
#X connect 6 0 7 0;
#X connect 7 1 8 0;
#X connect 8 0 2 0;
#X connect 11 0 13 0;
#X connect 12 0 11 1;
#X connect 14 0 15 0;
#X connect 15 0 16 0;
#X connect 15 1 5 0;
#X connect 16 0 4 0;
#X connect 16 1 5 0;
#X restore 366 244 pd sym-route;
#X obj 348 382 cyclone/prepend;
#X obj 366 143 t a b;
#X text 460 245 <- credit to Thomas Grill. Thank You!!!;
#X obj 573 227 cyclone/prepend symbol;
#X obj 766 181 i \$2;
#X obj 573 125 symbol \$1;
#X obj 348 25 t b b;
#X obj 348 324 t a b;
#X obj 1012 131 send preAbsCount;
#X obj 1012 110 iemguts/canvasindex;
#X obj 1012 85 loadbang;
#X obj 999 63 r update_abs_count;
#X obj 366 277 nbx 2 11 -1e+37 1e+37 0 0 empty empty PrstNum 25 6 0
8 -191407 -1 -1 18 256;
#X obj 640 575 cyclone/coll;
#C restore;
#X msg 842 462 store \$1;
#X obj 796 496 prepend;
#X obj 796 456 list;
#N canvas 841 319 1025 697 open_save-file 0;
#X obj 206 22 inlet;
#X text 488 288 file doesn't exist;
#X text 106 271 file exists;
#X obj 86 577 outlet OPEN --- SAVE;
#X obj 612 377 print -n;
#X obj 259 300 route error;
#X obj 544 340 bang;
#X obj 259 234 prepend symbol;
#X obj 86 340 bang;
#X text 520 503 checks if file exists \; it creates it if it doesn't
exist \; it opens it if the file already exists;
#X obj 544 82 inlet;
#X text 547 114 saves the file each time a new preset is recorded \,
updating the file in disk;
#X obj 206 265 hcs/stat;
#X obj 259 189 tof/path;
#X obj 612 317 b;
#X obj 612 357 list trim;
#X obj 206 51 del 100;
#N canvas 59 699 500 300 write_file 0;
#X obj 126 29 inlet;
#X obj 126 230 outlet;
#X obj 126 137 tof/path;
#X obj 126 52 t b b b;
#X obj 126 181 prepend write;
#X obj 398 89 inlet;
#X obj 222 101 makesymbol \$1-\$2;
#X obj 21 30 inlet;
#X msg 21 63 store 0 empty;
#X obj 126 158 cyclone/sprintf %s/%s-%s.msc;
#X connect 0 0 3 0;
#X connect 2 0 9 0;
#X connect 3 0 2 0;
#X connect 3 1 6 0;
#X connect 4 0 1 0;
#X connect 5 0 9 2;
#X connect 6 0 9 1;
#X connect 7 0 8 0;
#X connect 8 0 1 0;
#X connect 9 0 4 0;
#X restore 259 516 pd write_file;
#N canvas 0 50 619 300 read_file 0;
#X obj 142 43 inlet;
#X obj 142 244 outlet;
#X obj 142 151 tof/path;
#X obj 142 66 t b b b;
#X obj 142 212 prepend read;
#X obj 313 143 inlet;
#X obj 227 117 makesymbol \$1-\$2;
#X obj 142 172 cyclone/sprintf %s/%s-%s.msc;
#X connect 0 0 3 0;
#X connect 2 0 7 0;
#X connect 3 0 2 0;
#X connect 3 1 6 0;
#X connect 4 0 1 0;
#X connect 5 0 7 2;
#X connect 6 0 7 1;
#X connect 7 0 4 0;
#X restore 86 452 pd read_file;
#X obj 452 81 inlet;
#X obj 206 76 t b b b;
#X obj 355 145 makesymbol \$1-\$2;
#X obj 259 210 cyclone/sprintf %s/%s-%s.msc;
#X obj 612 337 makesymbol -----CREATING_MSC_MEM_FILE_\$1-\$2-----;
#X obj 259 351 t b b;
#X obj 315 332 bng 15 250 50 0 empty empty empty 17 7 0 10 -262144
-1 -1;
#X obj 98 393 bng 15 250 50 0 empty empty empty 17 7 0 10 -262144 -1
-1;
#X connect 0 0 16 0;
#X connect 5 0 24 0;
#X connect 5 1 14 0;
#X connect 6 0 17 1;
#X connect 7 0 12 1;
#X connect 8 0 18 0;
#X connect 10 0 6 0;
#X connect 12 0 8 0;
#X connect 12 1 5 0;
#X connect 13 0 22 0;
#X connect 14 0 23 0;
#X connect 15 0 4 0;
#X connect 16 0 20 0;
#X connect 17 0 3 0;
#X connect 18 0 3 0;
#X connect 19 0 18 1;
#X connect 20 0 12 0;
#X connect 20 1 13 0;
#X connect 20 2 21 0;
#X connect 21 0 22 1;
#X connect 22 0 7 0;
#X connect 23 0 15 0;
#X connect 24 0 17 0;
#X connect 24 1 17 1;
#X connect 25 0 24 0;
#X connect 26 0 18 0;
#X restore 57 558 pd open_save-file;
#X obj 37 19 declare -stdlib iemlib/iemlib2;
#X obj 37 38 declare -stdlib iemlib/iemlib1;
#X obj 649 44 initbang;
#X obj 57 411 initbang;
#X obj 37 57 declare -lib cyclone;
#X obj 37 76 declare -stdlib zexy;
#X obj 776 261 int;
#X obj 776 402 t b b f b;
#X obj 348 299 int;
#X obj 115 481 iemguts/canvasname 1;
#X obj 203 506 iemguts/canvasargs 1;
#X obj 115 528 sprintf %s-%s;
#X obj 57 431 t b b b;
#X obj 669 98 iemguts/canvasname 1;
#X obj 757 125 iemguts/canvasargs 1;
#X obj 669 151 sprintf %s-%s;
#X obj 649 63 t b b b b;
#X obj 791 221 r PRE-MANAGER-update-number_STORE;
#X obj 450 341 symbol;
#X obj 450 361 list trim;
#X text 80 146 www.jrsv.net;
#X text 39 133 released under GPL license;
#X text 53 161 Edinburgh - Scotland;
#X text 39 118 (c) J.Rafael Subia V. 2016;
#X obj 1047 262 inlet;
#X obj 640 639 outlet;
#X obj 573 202 cyclone/sprintf msc-%s-%s-%d;
#X msg 640 404 open;
#X obj 432 277 bng 11 250 50 0 empty empty Open 13 6 0 8 -162280 -258113
-1;
#N canvas 0 22 450 300 onebang 0;
#X obj 58 65 inlet;
#X obj 58 251 outlet;
#X msg 262 92 1;
#X obj 58 176 spigot;
#X msg 230 93 0;
#X obj 262 53 inlet reset;
#X obj 200 133 int 1;
#X obj 58 94 trigger anything bang;
#X obj 58 202 trigger anything bang;
#X obj 326 75 loadbang;
#X connect 0 0 7 0;
#X connect 2 0 6 1;
#X connect 3 0 8 0;
#X connect 4 0 6 1;
#X connect 5 0 2 0;
#X connect 6 0 3 1;
#X connect 7 0 3 0;
#X connect 7 1 6 0;
#X connect 8 0 1 0;
#X connect 8 1 4 0;
#X connect 9 0 2 0;
#X restore 398 164 pd onebang;
#X obj 465 144 initbang;
#X msg 122 297 bang;
#X obj 796 532 cyclone/tosymbol;
#X obj 40 395 bng 15 250 50 0 empty empty empty 17 7 0 10 -262144 -1
-1;
#X obj 469 62 \$2;
#X obj 469 81 makefilename \$1-%d;
#X obj 437 100 send;
#X obj 437 42 t b b;
#X obj 325 10 bng 15 250 50 0 empty empty empty 17 7 0 10 -262144 -1
-1;
#X obj 807 344 bng 15 250 50 0 empty empty empty 17 7 0 10 -262144
-1 -1;
#X obj 173 411 iemguts/savebangs 1;
#X msg 667 460 sort -1 -1;
#X obj 640 329 t b b;
#X floatatom 298 336 5 0 0 0 - - -, f 5;
#X floatatom 817 255 5 0 0 0 - - -, f 5;
#X msg 480 455 writeagain;
#X obj 186 435 t b b;
#X connect 0 0 10 0;
#X connect 2 0 5 0;
#X connect 3 0 16 0;
#X connect 4 0 1 0;
#X connect 5 0 3 0;
#X connect 5 1 51 0;
#X connect 7 0 3 1;
#X connect 7 0 40 1;
#X connect 8 0 48 2;
#X connect 9 0 48 0;
#X connect 10 0 30 0;
#X connect 10 1 59 0;
#X connect 10 1 28 0;
#X connect 11 0 4 0;
#X connect 11 1 40 0;
#X connect 13 0 12 0;
#X connect 14 0 13 0;
#X connect 15 0 13 0;
#X connect 16 0 30 1;
#X connect 16 0 17 0;
#X connect 17 0 47 0;
#X connect 17 0 53 0;
#X connect 18 0 19 1;
#X connect 19 0 54 0;
#X connect 19 0 17 0;
#X connect 20 0 19 0;
#X connect 21 0 17 0;
#X connect 24 0 38 0;
#X connect 25 0 34 0;
#X connect 28 0 29 0;
#X connect 28 0 16 0;
#X connect 29 0 21 2;
#X connect 29 1 20 0;
#X connect 29 2 18 0;
#X connect 30 0 11 0;
#X connect 30 0 65 0;
#X connect 31 0 33 0;
#X connect 32 0 33 1;
#X connect 33 0 21 1;
#X connect 34 0 21 0;
#X connect 34 1 31 0;
#X connect 34 2 32 0;
#X connect 35 0 37 0;
#X connect 36 0 37 1;
#X connect 37 0 48 1;
#X connect 38 0 9 0;
#X connect 38 1 35 0;
#X connect 38 2 36 0;
#X connect 38 3 8 0;
#X connect 39 0 28 1;
#X connect 39 0 66 0;
#X connect 40 0 41 0;
#X connect 41 0 4 1;
#X connect 46 0 20 1;
#X connect 48 0 7 0;
#X connect 49 0 17 0;
#X connect 50 0 64 0;
#X connect 51 0 8 0;
#X connect 52 0 51 1;
#X connect 53 0 51 1;
#X connect 55 0 34 0;
#X connect 56 0 57 0;
#X connect 57 0 58 1;
#X connect 59 0 58 0;
#X connect 59 1 56 0;
#X connect 60 0 10 0;
#X connect 61 0 29 0;
#X connect 62 0 68 0;
#X connect 63 0 17 0;
#X connect 64 0 49 0;
#X connect 64 1 63 0;
#X connect 67 0 17 0;
#X connect 68 0 67 0;
#X connect 68 1 21 2;
#X coords 0 -1 1 1 100 11 2 366 277;
