#N canvas 141 93 1095 719 10;
#X declare -stdlib iemlib/iemlib2;
#X declare -stdlib iemlib/iemlib1;
#X declare -lib cyclone;
#X declare -stdlib zexy;
#X obj 348 497 s to_Master_preset;
#X obj 366 200 r CallBack-Master;
#X obj 348 475 cyclone/prepend;
#X obj 348 358 t a b;
#X obj 63 92 send preAbsCount;
#X obj 63 71 iemguts/canvasindex;
#X obj 63 46 loadbang;
#X obj 50 24 r update_abs_count;
#X obj 366 310 nbx 2 11 -1e+37 1e+37 0 0 empty empty PrstNum 25 6 0
8 -191407 -1 -1 0 256;
#X obj 551 609 cyclone/coll;
#C restore;
#X msg 773 487 store \$1;
#X obj 704 466 list;
#X obj 40 149 declare -stdlib iemlib/iemlib2;
#X obj 40 168 declare -stdlib iemlib/iemlib1;
#X obj 40 187 declare -lib cyclone;
#X obj 40 206 declare -stdlib zexy;
#X obj 687 267 int, f 5;
#X obj 687 412 t b b f b;
#X obj 348 333 int;
#X obj 450 376 symbol;
#X obj 450 396 list trim;
#X text 83 276 www.jrsv.net;
#X text 42 263 released under GPL license;
#X text 56 291 Edinburgh - Scotland;
#X text 42 248 (c) J.Rafael Subia V. 2016;
#X obj 807 296 inlet;
#X obj 551 673 outlet;
#X obj 432 310 bng 11 250 50 0 empty empty Open 13 6 0 8 -162280 -258113
-1;
#X obj 590 99 \$2;
#X obj 590 120 makefilename \$1-%d;
#X obj 563 142 send;
#X obj 563 78 t b b;
#X obj 807 316 route local;
#X obj 714 224 r PRE-MANAGER-update-number_STORE;
#N canvas 63 86 450 300 -localizer 0;
#X obj 143 117 spigot 1;
#X obj 196 54 \$2;
#X obj 196 33 loadbang;
#X obj 143 37 inlet;
#X obj 143 161 outlet;
#X obj 241 100 r \$0-MODE;
#X text 35 216 if local mode is detected \, then turns of the global
mode;
#X obj 196 75 != 1;
#X connect 0 0 4 0;
#X connect 1 0 7 0;
#X connect 2 0 1 0;
#X connect 3 0 0 0;
#X connect 5 0 0 1;
#X connect 7 0 0 1;
#X restore 714 245 pd -localizer;
#N canvas 729 244 580 312 store-recall 0;
#X obj 108 56 unpack 0 0;
#X obj 108 99 == 1;
#X obj 108 124 sel 0 1;
#X obj 108 234 outlet;
#X text 96 257 this subpatch allows me to manage recording or recalling
of local presets by transforming the 0 or 1 to recall and store keywords
for the [coll] object;
#X obj 108 13 inlet;
#X obj 108 78 pipe 10;
#X obj 277 148 print -----;
#X obj 109 155 i;
#X obj 140 193 i;
#X msg 108 175 store \$1;
#X msg 136 212 recall \$1;
#X connect 0 0 6 0;
#X connect 0 1 8 1;
#X connect 0 1 9 1;
#X connect 1 0 2 0;
#X connect 2 0 8 0;
#X connect 2 1 9 0;
#X connect 5 0 0 0;
#X connect 6 0 1 0;
#X connect 8 0 10 0;
#X connect 9 0 11 0;
#X connect 10 0 3 0;
#X connect 11 0 3 0;
#X restore 807 358 pd store-recall;
#X obj 902 359 cnv 15 15 15 empty empty empty 20 12 0 14 -4160 -66577
0;
#X obj 919 379 cnv 15 15 15 empty empty empty 20 12 0 14 -4160 -66577
0;
#X obj 858 396 cnv 15 15 15 empty empty empty 20 12 0 14 -4160 -66577
0;
#X obj 807 396 cnv 15 15 15 empty empty empty 20 12 0 14 -4160 -66577
0;
#X obj 807 378 route store recall;
#X obj 704 515 list prepend;
#X obj 859 541 i;
#X obj 348 22 r SaveMaster;
#N canvas 84 115 450 300 -localizer 0;
#X obj 143 117 spigot 1;
#X obj 196 54 \$2;
#X obj 196 33 loadbang;
#X obj 143 37 inlet;
#X obj 143 161 outlet;
#X obj 241 100 r \$0-MODE;
#X text 35 216 if local mode is detected \, then turns of the global
mode;
#X obj 196 75 != 1;
#X connect 0 0 4 0;
#X connect 1 0 7 0;
#X connect 2 0 1 0;
#X connect 3 0 0 0;
#X connect 5 0 0 1;
#X connect 7 0 0 1;
#X restore 348 41 pd -localizer;
#X obj 348 60 t b b;
#N canvas 632 161 385 415 sym-route-TG 0;
#X obj 50 34 inlet;
#X obj 210 36 inlet;
#X obj 84 376 outlet;
#X obj 49 60 t a a;
#X msg 158 222 1;
#X msg 191 221 0;
#X obj 50 276 spigot;
#X obj 50 322 list split 1;
#X obj 84 346 list trim;
#X text 48 13 message;
#X text 210 17 selector;
#X obj 159 276 spigot;
#X obj 192 254 == 0;
#X obj 165 377 outlet;
#X obj 121 100 list split 1;
#X obj 122 122 route symbol;
#X obj 159 186 select ___undefined___;
#X text 183 325 route with variable symbol arg.;
#X text 241 65 Credit to Thomas Grill;
#X connect 0 0 3 0;
#X connect 1 0 16 1;
#X connect 3 0 6 0;
#X connect 3 0 11 0;
#X connect 3 1 14 0;
#X connect 4 0 6 1;
#X connect 4 0 12 0;
#X connect 5 0 6 1;
#X connect 5 0 12 0;
#X connect 6 0 7 0;
#X connect 7 1 8 0;
#X connect 8 0 2 0;
#X connect 11 0 13 0;
#X connect 12 0 11 1;
#X connect 14 0 15 0;
#X connect 15 0 16 0;
#X connect 15 1 5 0;
#X connect 16 0 4 0;
#X connect 16 1 5 0;
#X restore 366 278 pd sym-route-TG;
#N canvas 252 149 450 300 open-local-coll 0;
#X msg 158 114 open;
#X msg 185 135 sort -1 -1;
#X obj 158 94 t b b;
#X obj 158 58 inlet;
#X obj 158 170 outlet;
#X obj 15 2 cnv 3 3 12 empty empty empty 20 12 0 14 -258113 -66577
0;
#X connect 0 0 4 0;
#X connect 1 0 4 0;
#X connect 2 0 0 0;
#X connect 2 1 1 0;
#X connect 3 0 2 0;
#X coords 0 -1 1 1 85 15 1 0 0;
#X restore 551 346 pd open-local-coll;
#N canvas 252 149 450 300 ID-CREATION 0;
#X obj 15 0 cnv 4 4 15 empty empty empty 20 12 0 14 -260097 -66577
0;
#X obj 87 227 cyclone/prepend symbol;
#X obj 280 181 i \$2;
#X obj 87 125 symbol \$1;
#X obj 184 44 initbang;
#X obj 169 103 iemguts/canvasname 1;
#X obj 244 130 iemguts/canvasargs 1;
#X obj 169 156 sprintf %s-%s;
#X obj 184 63 t b b b b;
#X obj 87 202 cyclone/sprintf msc-%s-%s-%d;
#X obj 87 263 outlet;
#X connect 1 0 10 0;
#X connect 2 0 9 2;
#X connect 3 0 9 0;
#X connect 4 0 8 0;
#X connect 5 0 7 0;
#X connect 6 0 7 1;
#X connect 7 0 9 1;
#X connect 8 0 3 0;
#X connect 8 1 5 0;
#X connect 8 2 6 0;
#X connect 8 3 2 0;
#X connect 9 0 1 0;
#X coords 0 -1 1 1 20 15 1 0 0;
#X restore 483 247 pd ID-CREATION;
#N canvas 53 574 450 300 -localizer 0;
#X obj 143 37 inlet;
#X obj 143 161 outlet;
#X obj 192 78 t b;
#X obj 192 125 s \$0-MODE;
#X msg 192 103 0;
#X connect 0 0 1 0;
#X connect 0 0 2 0;
#X connect 2 0 4 0;
#X connect 4 0 3 0;
#X restore 807 337 pd -localizer on/off;
#N canvas 232 129 450 300 local-File 1;
#X obj 15 0 cnv 4 4 15 empty empty empty 20 12 0 14 -4034 -66577 0
;
#N canvas 896 23 1025 697 open_save-file 1;
#X obj 206 22 inlet;
#X text 488 288 file doesn't exist;
#X text 106 271 file exists;
#X obj 86 577 outlet OPEN --- SAVE;
#X obj 612 377 print -n;
#X obj 259 300 route error;
#X obj 544 340 bang;
#X obj 259 234 prepend symbol;
#X obj 86 340 bang;
#X text 520 503 checks if file exists \; it creates it if it doesn't
exist \; it opens it if the file already exists;
#X obj 544 82 inlet;
#X text 547 114 saves the file each time a new preset is recorded \,
updating the file in disk;
#X obj 206 265 hcs/stat;
#X obj 259 189 tof/path;
#X obj 612 317 b;
#X obj 612 357 list trim;
#X obj 206 51 del 100;
#N canvas 59 699 500 300 write_file 1;
#X obj 126 29 inlet;
#X obj 126 230 outlet;
#X obj 126 137 tof/path;
#X obj 126 52 t b b b;
#X obj 126 181 prepend write;
#X obj 398 89 inlet;
#X obj 222 101 makesymbol \$1-\$2;
#X obj 21 30 inlet;
#X msg 21 63 store 0 empty;
#X obj 126 158 cyclone/sprintf %s/%s-%s.msc;
#X connect 0 0 3 0;
#X connect 2 0 9 0;
#X connect 3 0 2 0;
#X connect 3 1 6 0;
#X connect 4 0 1 0;
#X connect 5 0 9 2;
#X connect 6 0 9 1;
#X connect 7 0 8 0;
#X connect 8 0 1 0;
#X connect 9 0 4 0;
#X restore 259 516 pd write_file;
#N canvas 22 104 585 494 read_file 0;
#X obj 173 306 outlet;
#X obj 173 139 path;
#X obj 173 202 list append;
#X obj 236 103 symbol \$1;
#X obj 236 80 bng 15 250 50 0 empty empty empty 17 7 0 10 -262144 -1
-1;
#X obj 173 77 t b b;
#X obj 236 139 list;
#X msg 173 221 \$1\$2;
#X obj 173 259 route list;
#X obj 173 240 list prepend read;
#X text 119 357 Builds the message with the PATH/FILENAME.extension
;
#X obj 173 45 inlet;
#X obj 237 121 makefilename /%s-\$2.brp;
#X connect 1 0 2 0;
#X connect 2 0 7 0;
#X connect 3 0 12 0;
#X connect 4 0 3 0;
#X connect 5 0 1 0;
#X connect 5 1 3 0;
#X connect 6 0 2 1;
#X connect 7 0 9 0;
#X connect 8 0 0 0;
#X connect 9 0 8 0;
#X connect 11 0 5 0;
#X connect 12 0 6 0;
#X restore 86 452 pd read_file;
#X obj 452 81 inlet;
#X obj 206 76 t b b b;
#X obj 355 145 makesymbol \$1-\$2;
#X obj 259 210 cyclone/sprintf %s/%s-%s.msc;
#X obj 612 337 makesymbol -----CREATING_MSC_MEM_FILE_\$1-\$2-----;
#X obj 259 351 t b b;
#X obj 315 332 bng 15 250 50 0 empty empty empty 17 7 0 10 -262144
-1 -1;
#X obj 181 377 bng 15 250 50 0 empty empty empty 17 7 0 10 -262144
-1 -1;
#N canvas 22 104 585 494 write_file 1;
#X obj 173 306 outlet;
#X obj 173 139 path;
#X obj 173 202 list append;
#X obj 236 103 symbol \$1;
#X obj 236 80 bng 15 250 50 0 empty empty empty 17 7 0 10 -262144 -1
-1;
#X obj 173 77 t b b;
#X obj 236 139 list;
#X msg 173 221 \$1\$2;
#X obj 173 259 route list;
#X text 119 357 Builds the message with the PATH/FILENAME.extension
;
#X obj 173 45 inlet;
#X obj 237 121 makefilename /%s-\$2.brp;
#X obj 173 240 list prepend write;
#X connect 1 0 2 0;
#X connect 2 0 7 0;
#X connect 3 0 11 0;
#X connect 4 0 3 0;
#X connect 5 0 1 0;
#X connect 5 1 3 0;
#X connect 6 0 2 1;
#X connect 7 0 12 0;
#X connect 8 0 0 0;
#X connect 10 0 5 0;
#X connect 11 0 6 0;
#X connect 12 0 8 0;
#X restore 265 548 pd write_file;
#X connect 0 0 16 0;
#X connect 5 0 24 0;
#X connect 5 1 14 0;
#X connect 6 0 17 1;
#X connect 7 0 12 1;
#X connect 8 0 18 0;
#X connect 10 0 6 0;
#X connect 12 0 8 0;
#X connect 12 1 5 0;
#X connect 13 0 22 0;
#X connect 14 0 23 0;
#X connect 15 0 4 0;
#X connect 16 0 20 0;
#X connect 17 0 3 0;
#X connect 18 0 3 0;
#X connect 20 0 12 0;
#X connect 20 1 13 0;
#X connect 20 2 21 0;
#X connect 21 0 22 1;
#X connect 22 0 7 0;
#X connect 23 0 15 0;
#X connect 24 0 17 0;
#X connect 24 1 17 1;
#X connect 25 0 24 0;
#X restore 47 201 pd open_save-file;
#X obj 47 54 initbang;
#X obj 105 124 iemguts/canvasname 1;
#X obj 193 149 iemguts/canvasargs 1;
#X obj 105 171 sprintf %s-%s;
#X obj 47 74 t b b b;
#X obj 163 54 iemguts/savebangs 1;
#X msg 162 234 writeagain;
#X obj 163 73 t b b;
#X obj 146 13 inlet update-save;
#X obj 47 254 outlet;
#X connect 1 0 11 0;
#X connect 2 0 6 0;
#X connect 3 0 5 0;
#X connect 4 0 5 1;
#X connect 5 0 1 1;
#X connect 6 0 1 0;
#X connect 6 1 3 0;
#X connect 6 2 4 0;
#X connect 7 0 9 0;
#X connect 8 0 11 0;
#X connect 9 0 8 0;
#X connect 9 1 1 2;
#X connect 10 0 1 2;
#X coords 0 -1 1 1 20 15 1 0 0;
#X restore 580 499 pd local-File;
#X text 804 278 input all IDs and values to STORES;
#X obj 704 491 route list;
#X obj 704 544 route list;
#X connect 1 0 46 0;
#X connect 2 0 0 0;
#X connect 3 0 2 0;
#X connect 3 1 19 0;
#X connect 5 0 4 0;
#X connect 6 0 5 0;
#X connect 7 0 5 0;
#X connect 8 0 18 1;
#X connect 8 0 9 0;
#X connect 9 0 26 0;
#X connect 10 0 41 1;
#X connect 11 0 52 0;
#X connect 16 0 17 0;
#X connect 16 0 8 0;
#X connect 17 0 50 0;
#X connect 17 1 11 0;
#X connect 17 2 10 0;
#X connect 18 0 3 0;
#X connect 19 0 20 0;
#X connect 20 0 2 1;
#X connect 25 0 11 1;
#X connect 25 0 32 0;
#X connect 27 0 47 0;
#X connect 28 0 29 0;
#X connect 29 0 30 1;
#X connect 31 0 30 0;
#X connect 31 1 28 0;
#X connect 32 0 49 0;
#X connect 33 0 34 0;
#X connect 34 0 16 1;
#X connect 35 0 40 0;
#X connect 40 0 17 0;
#X connect 40 1 42 0;
#X connect 41 0 53 0;
#X connect 42 0 9 0;
#X connect 43 0 44 0;
#X connect 44 0 45 0;
#X connect 45 0 18 0;
#X connect 45 1 31 0;
#X connect 45 1 16 0;
#X connect 46 0 8 0;
#X connect 47 0 9 0;
#X connect 48 0 46 1;
#X connect 48 0 19 1;
#X connect 49 0 35 0;
#X connect 50 0 9 0;
#X connect 52 0 41 0;
#X connect 53 0 9 0;
#X coords 0 -1 1 1 100 11 2 366 310;
