#N canvas 581 38 698 610 10;
#X declare -lib cyclone;
#X declare -stdlib iemlib/iemlib2;
#X obj 65 478 int;
#X obj 65 1 r SaveMaster;
#X obj 65 565 s to_Master_preset;
#X obj 80 114 r CallBack-Master;
#N canvas 1100 251 385 415 sym-route 0;
#X obj 50 34 inlet;
#X obj 210 36 inlet;
#X obj 84 376 outlet;
#X obj 49 60 t a a;
#X msg 158 222 1;
#X msg 191 221 0;
#X obj 50 276 spigot;
#X obj 50 322 list split 1;
#X obj 84 346 list trim;
#X text 48 13 message;
#X text 210 17 selector;
#X obj 159 276 spigot;
#X obj 192 254 == 0;
#X obj 165 377 outlet;
#X obj 121 100 list split 1;
#X obj 122 122 route symbol;
#X obj 159 186 select ___undefined___;
#X text 183 325 route with variable symbol arg.;
#X connect 0 0 3 0;
#X connect 1 0 16 1;
#X connect 3 0 6 0;
#X connect 3 0 11 0;
#X connect 3 1 14 0;
#X connect 4 0 6 1;
#X connect 4 0 12 0;
#X connect 5 0 6 1;
#X connect 5 0 12 0;
#X connect 6 0 7 0;
#X connect 7 1 8 0;
#X connect 8 0 2 0;
#X connect 11 0 13 0;
#X connect 12 0 11 1;
#X connect 14 0 15 0;
#X connect 15 0 16 0;
#X connect 15 1 5 0;
#X connect 16 0 4 0;
#X connect 16 1 5 0;
#X restore 80 225 pd sym-route;
#X obj 65 543 cyclone/prepend;
#X obj 80 134 t a b;
#X obj 136 476 outlet;
#X text 194 230 <- credit to Thomas Grill. Thank You!!!;
#X obj 287 289 prepend set;
#X msg 152 521 nbx-instnum-zLFO-LFOS-1;
#X obj 287 198 cyclone/prepend symbol;
#X obj 452 151 i \$2;
#X obj 287 83 symbol \$1;
#X obj 81 401 nbx 1 14 -1e+37 1e+37 0 0 empty empty empty 0 -8 0 10
-191407 -1 -1 0 256;
#X obj 80 378 line;
#X obj 153 256 r PreInterpTime;
#X obj 9 146 inlet;
#X obj 9 168 t a b;
#X msg 36 188 0;
#X obj 65 500 t a b;
#X obj 80 357 pack;
#X obj 453 414 send preAbsCount;
#X obj 453 393 iemguts/canvasindex;
#X obj 453 368 loadbang;
#X obj 440 346 r update_abs_count;
#X obj 80 286 pipe 10;
#X obj 497 254 declare -lib cyclone;
#X obj 497 277 declare -stdlib iemlib/iemlib2;
#X obj 287 37 initbang;
#X obj 287 173 cyclone/sprintf nbx-%s-%s-%d;
#X obj 65 20 t b b;
#X obj 369 90 iemguts/canvasname 1;
#X obj 444 110 iemguts/canvasargs 1;
#X obj 369 130 sprintf %s-%s;
#X obj 287 58 t b b b b;
#X text 399 517 www.jrsv.net;
#X text 358 504 released under GPL license;
#X text 372 532 Edinburgh - Scotland;
#X text 358 489 (c) J.Rafael Subia V. 2016;
#X obj 101 404 cnv 10 20 10 empty \$0-label LF1 3 5 0 8 -1 -4032 0
;
#X obj 175 334 \$2;
#X obj 175 313 loadbang;
#X obj 233 442 s \$0-label;
#X msg 233 404 label LF\$1;
#X obj 157 310 bng 15 250 50 0 empty empty empty 17 7 0 10 -262144
-1 -1;
#X connect 0 0 20 0;
#X connect 1 0 31 0;
#X connect 3 0 6 0;
#X connect 4 0 26 0;
#X connect 5 0 2 0;
#X connect 6 0 4 0;
#X connect 6 1 12 0;
#X connect 9 0 10 0;
#X connect 10 0 5 1;
#X connect 11 0 4 1;
#X connect 12 0 30 2;
#X connect 13 0 30 0;
#X connect 14 0 0 1;
#X connect 14 0 7 0;
#X connect 15 0 14 0;
#X connect 16 0 21 1;
#X connect 17 0 18 0;
#X connect 18 0 21 0;
#X connect 18 1 19 0;
#X connect 19 0 21 1;
#X connect 20 0 5 0;
#X connect 20 1 10 0;
#X connect 21 0 15 0;
#X connect 23 0 22 0;
#X connect 24 0 23 0;
#X connect 25 0 23 0;
#X connect 26 0 21 0;
#X connect 29 0 35 0;
#X connect 30 0 9 0;
#X connect 30 0 11 0;
#X connect 31 0 0 0;
#X connect 32 0 34 0;
#X connect 33 0 34 1;
#X connect 34 0 30 1;
#X connect 35 0 13 0;
#X connect 35 1 32 0;
#X connect 35 2 33 0;
#X connect 35 3 12 0;
#X connect 41 0 44 0;
#X connect 42 0 41 0;
#X connect 44 0 43 0;
#X connect 45 0 41 0;
#X coords 0 -1 1 1 41 16 2 80 400;
