#N canvas 145 22 1150 695 10;
#X declare -stdlib iemlib/iemlib2;
#X declare -stdlib iemlib/iemlib1;
#X declare -stdlib zexy;
#X obj 500 100 cnv 15 250 85 empty empty empty 20 12 0 14 -33289 -66577
0;
#X obj 505 105 cnv 15 240 75 empty \$0-PreManager-presetName \\\$1-presets.txt
10 65 0 14 -228856 -66577 0;
#X obj 555 304 s \$0-updateInterTime;
#X obj 679 208 s PreInterpTime;
#X obj 679 68 r \$0-updateInterTime;
#X obj 673 144 cnv 15 65 15 empty \$0-prenumber NO_PRESET 2 8 0 10
-258699 -33289 0;
#X obj 679 114 int_nbx \$1;
#N canvas 294 141 623 390 Premanager-STORE 0;
#X obj 101 101 cnv 15 148 18 empty \$0-store_blink_color empty 20 12
0 14 -228992 -262144 0;
#X floatatom 120 103 5 0 500 0 - - -, f 5;
#X obj 102 102 bng 15 250 50 0 empty empty - 5 7 0 10 -261234 -4160
-1;
#X obj 155 102 bng 15 250 50 0 empty empty + 5 7 0 10 -261234 -4160
-1;
#X obj 102 181 i;
#X msg 165 181 1;
#X obj 119 221 +;
#X obj 102 145 t b b;
#X msg 129 181 -1;
#X obj 138 145 t b b;
#X obj 190 102 bng 15 250 50 0 empty empty STORE 17 8 0 10 -261234
-4160 -1;
#X obj 190 273 i;
#X obj 190 340 outlet;
#X obj 415 207 s \$0-store_blink_color;
#X msg 415 185 color 38;
#X msg 476 185 color 49;
#X obj 415 135 t b b;
#X obj 415 166 del 200;
#X obj 119 242 clip 0 500;
#X obj 119 304 send PRE-MANAGER-update-number_STORE-\$1;
#X obj 120 64 receive PRE-MANAGER-update-number_STORE-\$1;
#X connect 1 0 4 1;
#X connect 1 0 11 1;
#X connect 2 0 7 0;
#X connect 3 0 9 0;
#X connect 4 0 6 0;
#X connect 5 0 6 1;
#X connect 6 0 18 0;
#X connect 7 0 4 0;
#X connect 7 1 8 0;
#X connect 8 0 6 1;
#X connect 9 0 4 0;
#X connect 9 1 5 0;
#X connect 10 0 11 0;
#X connect 10 0 16 0;
#X connect 11 0 12 0;
#X connect 14 0 13 0;
#X connect 15 0 13 0;
#X connect 16 0 17 0;
#X connect 16 1 15 0;
#X connect 17 0 14 0;
#X connect 18 0 11 1;
#X connect 18 0 19 0;
#X connect 20 0 1 0;
#X coords 0 -1 1 1 150 20 2 100 100;
#X restore 516 139 pd Premanager-STORE;
#N canvas 474 50 623 390 Premanager-ReCALL 0;
#X obj 101 101 cnv 15 148 18 empty \$0-recall_blink_color empty 20
12 0 14 -262131 -262144 0;
#X floatatom 120 103 5 0 500 0 - - -, f 5;
#X obj 102 102 bng 15 250 50 0 empty empty - 5 7 0 10 -261234 -4160
-1;
#X obj 155 102 bng 15 250 50 0 empty empty + 5 7 0 10 -261234 -4160
-1;
#X obj 102 210 i;
#X msg 165 210 1;
#X obj 119 250 +;
#X obj 102 174 t b b;
#X msg 129 210 -1;
#X obj 138 174 t b b;
#X obj 190 102 bng 15 250 50 0 empty empty ReCALL 17 8 0 10 -261234
-4160 -1;
#X obj 190 305 i;
#X obj 196 325 outlet;
#X obj 416 135 t b b;
#X obj 415 166 del 200;
#X msg 415 198 color 5;
#X msg 476 198 color 14;
#X obj 415 235 s \$0-recall_blink_color;
#X obj 119 270 clip 0 500;
#X obj 119 346 send PRE-MANAGER-update-number_ReCALL;
#X obj 120 64 receive PRE-MANAGER-update-number_ReCALL;
#X connect 1 0 4 1;
#X connect 1 0 11 1;
#X connect 2 0 7 0;
#X connect 3 0 9 0;
#X connect 4 0 6 0;
#X connect 5 0 6 1;
#X connect 6 0 18 0;
#X connect 7 0 4 0;
#X connect 7 1 8 0;
#X connect 8 0 6 1;
#X connect 9 0 4 0;
#X connect 9 1 5 0;
#X connect 10 0 11 0;
#X connect 10 0 13 0;
#X connect 11 0 12 0;
#X connect 13 0 14 0;
#X connect 13 1 16 0;
#X connect 14 0 15 0;
#X connect 15 0 17 0;
#X connect 16 0 17 0;
#X connect 18 0 11 1;
#X connect 18 0 19 0;
#X connect 20 0 1 0;
#X coords 0 -1 1 1 150 20 2 100 100;
#X restore 516 112 pd Premanager-ReCALL;
#X obj 667 165 bng 12 250 50 0 \$0-printallpresets empty EDIT/PRSTS
15 5 0 9 -204786 -159808 -1;
#X obj 83 448 r \$0-printallpresets;
#N canvas 320 67 792 591 open_save-file 0;
#X obj 172 16 inlet;
#X obj 417 209 prepend label;
#X obj 417 230 s \$0-PreManager-presetName;
#X text 72 237 file exists;
#X obj 52 543 outlet OPEN --- SAVE;
#X obj 428 424 print -n;
#X obj 245 260 bang;
#X obj 217 127 cyclone/sprintf %s/%s;
#X obj 217 151 prepend symbol;
#X obj 172 69 t b b b;
#X obj 52 306 bang;
#X text 346 488 checks if file exists \; it creates it if it doesn't
exist \; it opens it if the file already exists;
#X obj 522 55 inlet;
#X text 328 20 saves the file each time a new preset is recorded \,
updating the file in disk;
#X obj 172 231 hcs/stat;
#X obj 217 106 tof/path;
#X obj 259 370 prepend write;
#X obj 70 358 prepend read;
#X obj 259 348 makesymbol \$1-presets.txt;
#X obj 70 337 makesymbol \$1-presets.txt;
#X obj 417 104 makesymbol \$1-presets.txt;
#X obj 428 401 list trim 1;
#X obj 218 13 bng 15 250 50 0 empty empty empty 17 7 0 10 -262144 -1
-1;
#X obj 172 40 del 100;
#X obj 428 345 symbol -------------saving___\$1___PRESET_MANAGER------------
;
#X obj 293 303 bng 15 250 50 0 empty empty empty 17 7 0 10 -262144
-1 -1;
#N canvas 0 50 450 300 write_file 0;
#X obj 120 113 tof/path;
#X obj 120 139 cyclone/sprintf %s/%s;
#X obj 120 86 t b b;
#X obj 120 65 inlet;
#X obj 120 182 outlet;
#X obj 120 161 cyclone/prepend write;
#X obj 176 114 makesymbol \$1-presets.txt;
#X connect 0 0 1 0;
#X connect 1 0 5 0;
#X connect 2 0 0 0;
#X connect 2 1 6 0;
#X connect 3 0 2 0;
#X connect 5 0 4 0;
#X connect 6 0 1 1;
#X restore 154 480 pd write_file;
#N canvas 0 50 450 300 read_file 0;
#X obj 120 113 tof/path;
#X obj 120 139 cyclone/sprintf %s/%s;
#X obj 120 86 t b b;
#X obj 120 65 inlet;
#X obj 120 182 outlet;
#X obj 120 161 cyclone/prepend read;
#X obj 176 114 makesymbol \$1-presets.txt;
#X connect 0 0 1 0;
#X connect 1 0 5 0;
#X connect 2 0 0 0;
#X connect 2 1 6 0;
#X connect 3 0 2 0;
#X connect 5 0 4 0;
#X connect 6 0 1 1;
#X restore 52 478 pd read_file;
#X connect 0 0 23 0;
#X connect 1 0 2 0;
#X connect 6 0 18 0;
#X connect 6 0 26 0;
#X connect 7 0 8 0;
#X connect 8 0 14 1;
#X connect 9 0 14 0;
#X connect 9 1 15 0;
#X connect 9 2 20 0;
#X connect 10 0 19 0;
#X connect 10 0 27 0;
#X connect 12 0 6 0;
#X connect 14 0 10 0;
#X connect 15 0 7 0;
#X connect 18 0 16 0;
#X connect 19 0 17 0;
#X connect 20 0 7 1;
#X connect 20 0 1 0;
#X connect 21 0 5 0;
#X connect 22 0 9 0;
#X connect 23 0 9 0;
#X connect 24 0 21 0;
#X connect 25 0 18 0;
#X connect 26 0 4 0;
#X connect 27 0 4 0;
#X restore 66 333 pd open_save-file;
#X obj 277 418 cyclone/prepend;
#X obj 277 255 r to_Master_preset;
#X msg 277 300 add2 \$1;
#X obj 277 278 cyclone/tosymbol;
#N canvas 67 118 743 679 empty_message 0;
#X obj 89 15 inlet;
#X obj 68 622 outlet;
#X obj 326 435 list length;
#X obj 68 602 list;
#X obj 326 519 sel;
#X obj 394 14 r total_units_presets;
#X obj 398 477 i;
#X obj 326 460 t a b;
#X obj 89 36 t b a;
#X msg 285 68 set;
#X msg 89 114;
#X obj 285 557 t b b;
#X obj 285 45 loadbang;
#X floatatom 420 515 5 0 0 0 - - -, f 5;
#X obj 499 452 >;
#X obj 499 479 sel 1;
#X floatatom 370 532 5 0 0 0 - - -, f 5;
#X obj 394 44 t b a a;
#X text 130 13 collects all the values to record in coll;
#X text 335 603 collects all the values into a message and outputs
a single complete message with all o them only when all the values
of the GUI's are collected. This list is saved into the COLL object
;
#X connect 0 0 8 0;
#X connect 2 0 7 0;
#X connect 2 0 14 0;
#X connect 3 0 1 0;
#X connect 4 0 11 0;
#X connect 5 0 17 0;
#X connect 6 0 4 1;
#X connect 6 0 13 0;
#X connect 7 0 4 0;
#X connect 7 0 16 0;
#X connect 7 1 6 0;
#X connect 8 0 10 0;
#X connect 8 1 10 0;
#X connect 9 0 10 0;
#X connect 10 0 3 1;
#X connect 10 0 2 0;
#X connect 11 0 9 0;
#X connect 11 1 3 0;
#X connect 12 0 9 0;
#X connect 14 0 15 0;
#X connect 15 0 9 0;
#X connect 17 1 6 1;
#X connect 17 2 14 1;
#X restore 277 320 pd empty_message;
#X obj 400 265 s SaveMaster;
#N canvas 94 174 450 300 count_items 0;
#X obj 108 46 r preAbsCount;
#X obj 108 71 bang;
#X obj 136 143 + 1;
#X floatatom 108 164 5 0 0 0 - - -, f 5;
#X obj 178 189 s update_abs_count;
#X obj 250 69 bng 15 250 50 0 empty empty empty 17 7 0 10 -262144 -1
-1;
#X obj 93 208 s total_units_presets;
#X obj 159 70 inlet;
#X floatatom 72 79 5 0 0 0 - - -, f 5;
#X obj 115 99 bng 15 250 50 0 empty empty empty 17 7 0 10 -262144 -1
-1;
#X obj 108 144 f 1;
#X msg 198 120 1;
#X obj 93 186 i;
#X obj 159 92 t b b b;
#X connect 0 0 1 0;
#X connect 0 0 8 0;
#X connect 1 0 9 0;
#X connect 1 0 10 0;
#X connect 2 0 10 1;
#X connect 3 0 12 1;
#X connect 5 0 13 0;
#X connect 7 0 13 0;
#X connect 10 0 2 0;
#X connect 10 0 3 0;
#X connect 11 0 10 1;
#X connect 12 0 6 0;
#X connect 13 0 12 0;
#X connect 13 1 4 0;
#X connect 13 2 11 0;
#X restore 419 241 pd count_items;
#N canvas 81 232 552 423 current_preset_label 0;
#X obj 129 212 spigot;
#X obj 129 139 t a a;
#X obj 129 316 prepend label;
#X obj 129 362 s \$0-prenumber;
#X obj 129 270 cyclone/sprintf pre_numb-%d;
#X obj 209 184 sel 0;
#X msg 156 341 color 10 12;
#X obj 129 291 t a b;
#X msg 236 248 color 13 12;
#X obj 209 205 t b b;
#X obj 129 7 inlet;
#X obj 190 23 inlet;
#X msg 209 227 NO_PRESET;
#X obj 129 86 i;
#X obj 171 187 tgl 15 0 empty empty empty 17 7 0 10 -262144 -1 -1 0
1;
#X obj 162 160 ==;
#X obj 129 41 t b f;
#X obj 193 51 t b f;
#X connect 0 0 4 0;
#X connect 1 0 0 0;
#X connect 1 1 15 0;
#X connect 2 0 3 0;
#X connect 4 0 7 0;
#X connect 5 0 9 0;
#X connect 6 0 3 0;
#X connect 7 0 2 0;
#X connect 7 1 6 0;
#X connect 8 0 3 0;
#X connect 9 0 12 0;
#X connect 9 1 8 0;
#X connect 10 0 16 0;
#X connect 11 0 17 0;
#X connect 12 0 2 0;
#X connect 13 0 1 0;
#X connect 15 0 0 1;
#X connect 15 0 5 0;
#X connect 15 0 14 0;
#X connect 16 0 13 0;
#X connect 16 1 13 1;
#X connect 17 0 13 0;
#X connect 17 1 15 1;
#X restore 398 537 pd current_preset_label;
#X obj 353 616 s CallBack-Master;
#N canvas 50 312 470 341 drip_pairs 0;
#X obj 94 18 inlet;
#X obj 94 281 outlet;
#X obj 94 55 list;
#X obj 94 93 route list;
#X obj 94 135 t a;
#X obj 94 210 route list;
#X obj 94 162 list split 2;
#X obj 255 198 s2l;
#X obj 255 227 route list;
#X obj 255 154 symbol;
#N canvas 670 249 736 547 list_drip 0;
#X obj 63 84 t a a;
#X obj 63 241 spigot;
#X obj 102 149 bang;
#X obj 102 168 1;
#X obj 223 149 route bang;
#X obj 183 150 bang;
#X obj 183 169 0;
#X obj 102 114 list split 2;
#X obj 232 379 list split;
#X obj 299 328 list length;
#X obj 299 350 >> 1;
#X obj 63 260 t a a a a;
#X obj 63 446 list split;
#X obj 130 398 list length;
#X obj 130 423 >> 1;
#X obj 31 19 inlet;
#X obj 290 175 outlet;
#X text 73 19 Copyright 2009 by Mathieu Bouchard;
#X obj 31 53 t b a;
#X obj 465 119 outlet;
#X text 520 121 signal end of list;
#X text 381 23 made compatible with [list-drip]: fbar 2009;
#X connect 0 0 1 0;
#X connect 0 1 7 0;
#X connect 1 0 11 0;
#X connect 2 0 3 0;
#X connect 3 0 1 1;
#X connect 4 1 16 0;
#X connect 5 0 6 0;
#X connect 6 0 1 1;
#X connect 7 0 2 0;
#X connect 7 2 4 0;
#X connect 7 2 5 0;
#X connect 8 0 0 0;
#X connect 9 0 10 0;
#X connect 10 0 8 1;
#X connect 11 0 12 0;
#X connect 11 1 13 0;
#X connect 11 2 8 0;
#X connect 11 3 9 0;
#X connect 12 1 0 0;
#X connect 13 0 14 0;
#X connect 14 0 12 1;
#X connect 15 0 18 0;
#X connect 18 0 19 0;
#X connect 18 1 0 0;
#X restore 254 129 pd list_drip;
#X text 334 130 <- froms list-abs;
#X connect 0 0 2 0;
#X connect 0 0 10 0;
#X connect 2 0 3 0;
#X connect 3 0 4 0;
#X connect 4 0 6 0;
#X connect 5 0 1 0;
#X connect 6 0 5 0;
#X connect 6 1 4 0;
#X connect 7 0 8 0;
#X connect 8 0 1 0;
#X connect 9 0 7 0;
#X connect 10 0 9 0;
#X restore 353 564 pd drip_pairs;
#X obj 277 382 route list;
#X obj 516 279 t f f b;
#X msg 83 471 open;
#X msg 439 301 store \$1;
#X obj 400 199 t b b a;
#X text 59 70 needs only one argument that will use to create the .txt
file which will store all the presets \; \; the name of the file can't
be "0.txt" so the argument cannot be "0".;
#X obj 870 129 declare -stdlib iemlib/iemlib2;
#X obj 870 109 declare -stdlib iemlib/iemlib1;
#X obj 870 89 declare -stdlib zexy;
#X obj 66 311 init;
#X obj 581 464 init;
#X obj 353 508 cyclone/coll \$1-presets;
#C restore;
#X msg 581 491 flags 0 0;
#X connect 4 0 6 0;
#X connect 6 0 3 0;
#X connect 7 0 26 0;
#X connect 8 0 23 0;
#X connect 10 0 24 0;
#X connect 11 0 33 0;
#X connect 12 0 33 0;
#X connect 13 0 15 0;
#X connect 14 0 16 0;
#X connect 15 0 14 0;
#X connect 16 0 22 0;
#X connect 21 0 20 0;
#X connect 22 0 12 0;
#X connect 23 0 33 0;
#X connect 23 1 19 1;
#X connect 23 2 2 0;
#X connect 24 0 33 0;
#X connect 25 0 12 1;
#X connect 26 0 17 0;
#X connect 26 0 11 1;
#X connect 26 1 18 0;
#X connect 26 2 25 0;
#X connect 31 0 11 0;
#X connect 32 0 34 0;
#X connect 33 0 21 0;
#X connect 33 1 19 0;
#X connect 34 0 33 0;
#X coords 0 -1 1 1 250 85 2 500 100;
