#N canvas 63 2 1204 681 10;
#X declare -stdlib zexy;
#X declare -lib cyclone;
#X declare -stdlib iemlib/iemlib2;
#X obj 700 293 text get -s text t;
#X obj 700 318 list trim;
#X obj 760 491 bng 15 250 50 0 empty empty empty 17 7 0 10 -262144
-1 -1;
#X msg 760 600 read \\\\\\\$2-GUI-amount.txt;
#X obj 966 44 declare -stdlib zexy;
#X obj 966 64 declare -lib cyclone;
#X obj 761 541 cyclone/prepend read;
#X obj 761 568 cyclone/prepend set;
#X obj 975 506 cyclone/prepend write;
#X obj 700 220 text search GUI-amount;
#X obj 700 241 t a b;
#X obj 520 57 inlet;
#X obj 700 196 symbol \$1;
#X obj 975 484 makesymbol \$2-GUI-amount.txt;
#X obj 761 519 makesymbol \$2-GUI-amount.txt;
#X obj 520 95 t a b;
#X obj 700 343 route \$1;
#X obj 700 385 outlet;
#X obj 805 266 text define \$2-GUI-amount;
#X obj 520 377 text set \$1-GUI-amount;
#X obj 124 185 cyclone/sprintf %s/%s;
#X obj 79 121 t b b b;
#X obj 79 289 hcs/stat;
#X obj 124 164 tof/path;
#X obj 79 355 cyclone/prepend read;
#X obj 79 30 bng 15 250 50 0 empty empty empty 17 7 0 10 -262144 -1
-1;
#X obj 98 30 inlet;
#X obj 124 209 prepend symbol;
#X obj 79 95 del 10;
#X obj 247 154 symbol \$1-GUI-amount.txt;
#X obj 79 335 symbol \$1-GUI-amount.txt;
#X obj 966 84 declare -stdlib iemlib/iemlib2;
#X obj 79 63 init;
#X obj 700 174 init;
#X obj 230 335 symbol \$1-GUI-amount.txt;
#X obj 230 355 cyclone/prepend write;
#X obj 79 402 text define \$2-GUI-amount.txt;
#X connect 0 0 1 0;
#X connect 1 0 16 0;
#X connect 2 0 14 0;
#X connect 6 0 7 0;
#X connect 7 0 3 0;
#X connect 9 0 10 0;
#X connect 10 0 0 0;
#X connect 10 0 19 1;
#X connect 10 1 18 0;
#X connect 11 0 15 0;
#X connect 12 0 9 0;
#X connect 13 0 8 0;
#X connect 14 0 6 0;
#X connect 15 0 19 0;
#X connect 15 1 33 0;
#X connect 16 0 17 0;
#X connect 18 0 0 3;
#X connect 20 0 27 0;
#X connect 21 0 22 0;
#X connect 21 1 23 0;
#X connect 21 2 29 0;
#X connect 22 0 30 0;
#X connect 22 1 34 0;
#X connect 23 0 20 0;
#X connect 24 0 36 0;
#X connect 25 0 32 0;
#X connect 26 0 32 0;
#X connect 27 0 22 1;
#X connect 28 0 21 0;
#X connect 29 0 20 1;
#X connect 30 0 24 0;
#X connect 32 0 28 0;
#X connect 33 0 12 0;
#X connect 34 0 35 0;
#X connect 35 0 36 0;
