#N canvas 591 222 606 657 10;
#X declare -lib cyclone;
#X declare -stdlib zexy/zexy;
#X declare -lib iemguts;
#X declare -stdlib iemlib/iemlib2;
#X obj 67 485 int;
#X obj 67 8 r SaveMaster;
#X obj 67 611 s to_Master_preset;
#X obj 81 51 r CallBack-Master;
#N canvas 1100 251 385 415 sym-route 0;
#X obj 50 34 inlet;
#X obj 210 36 inlet;
#X obj 84 376 outlet;
#X obj 49 60 t a a;
#X msg 158 222 1;
#X msg 191 221 0;
#X obj 50 276 spigot;
#X obj 50 322 list split 1;
#X obj 84 346 list trim;
#X text 48 13 message;
#X text 210 17 selector;
#X obj 159 276 spigot;
#X obj 192 254 == 0;
#X obj 165 377 outlet;
#X obj 121 100 list split 1;
#X obj 122 122 route symbol;
#X obj 159 186 select ___undefined___;
#X text 183 325 route with variable symbol arg.;
#X connect 0 0 3 0;
#X connect 1 0 16 1;
#X connect 3 0 6 0;
#X connect 3 0 11 0;
#X connect 3 1 14 0;
#X connect 4 0 6 1;
#X connect 4 0 12 0;
#X connect 5 0 6 1;
#X connect 5 0 12 0;
#X connect 6 0 7 0;
#X connect 7 1 8 0;
#X connect 8 0 2 0;
#X connect 11 0 13 0;
#X connect 12 0 11 1;
#X connect 14 0 15 0;
#X connect 15 0 16 0;
#X connect 15 1 5 0;
#X connect 16 0 4 0;
#X connect 16 1 5 0;
#X restore 81 367 pd sym-route;
#X obj 67 589 cyclone/prepend;
#X obj 81 72 t a b;
#X obj 128 323 inlet;
#X text 158 379 <- credit to Thomas Grill. Thank You!!!;
#X obj 287 436 prepend set;
#X obj 287 350 cyclone/prepend symbol;
#X obj 476 126 i \$2;
#X obj 287 263 symbol \$1;
#X obj 447 467 send preAbsCount;
#X obj 447 446 iemguts/canvasindex;
#X obj 447 421 loadbang;
#X obj 67 510 t a b;
#X obj 434 399 r update_abs_count;
#X obj 392 572 declare -lib cyclone;
#X obj 392 533 declare -stdlib zexy/zexy;
#X obj 392 591 declare -lib iemguts;
#X obj 67 30 t b b;
#X obj 287 67 t b b b;
#X obj 392 552 declare -stdlib iemlib/iemlib2;
#X obj 381 216 iemguts/canvasname 1;
#X obj 456 236 iemguts/canvasargs 1;
#X obj 381 195 t b b;
#X text 433 52 www.jrsv.net;
#X text 392 39 released under GPL license;
#X text 406 67 Edinburgh - Scotland;
#X text 392 24 (c) J.Rafael Subia V. 2016;
#X obj 173 417 sel 0 1;
#X msg 173 443 color 13 13 42;
#X msg 193 467 color 16 16 42;
#X obj 81 401 tgl 15 0 empty empty empty 17 7 0 10 -258699 -258699
-33289 0 1;
#X obj 287 325 cyclone/sprintf tgl-DSP-%s-%s-%d;
#X msg 154 563 tgl-DSP-0--0;
#N canvas 0 22 450 300 onebang 0;
#X obj 58 65 inlet;
#X obj 58 251 outlet;
#X msg 262 92 1;
#X obj 58 176 spigot;
#X msg 230 93 0;
#X obj 262 53 inlet reset;
#X obj 200 133 int 1;
#X obj 58 94 trigger anything bang;
#X obj 58 202 trigger anything bang;
#X obj 326 75 loadbang;
#X connect 0 0 7 0;
#X connect 2 0 6 1;
#X connect 3 0 8 0;
#X connect 4 0 6 1;
#X connect 5 0 2 0;
#X connect 6 0 3 1;
#X connect 7 0 3 0;
#X connect 7 1 6 0;
#X connect 8 0 1 0;
#X connect 8 1 4 0;
#X connect 9 0 2 0;
#X restore 113 109 pd onebang;
#X obj 257 533 outlet;
#X obj 230 507 t b a;
#X obj 180 84 initbang;
#X obj 381 256 sprintf %s-%s;
#X obj 287 47 initbang;
#X connect 0 0 16 0;
#X connect 1 0 21 0;
#X connect 3 0 6 0;
#X connect 4 0 34 0;
#X connect 5 0 2 0;
#X connect 6 0 4 0;
#X connect 6 1 37 0;
#X connect 7 0 34 0;
#X connect 9 0 36 0;
#X connect 10 0 4 1;
#X connect 11 0 35 2;
#X connect 12 0 35 0;
#X connect 14 0 13 0;
#X connect 15 0 14 0;
#X connect 16 0 5 0;
#X connect 16 1 36 0;
#X connect 17 0 14 0;
#X connect 21 0 0 0;
#X connect 22 0 12 0;
#X connect 22 1 26 0;
#X connect 22 2 11 0;
#X connect 24 0 41 0;
#X connect 25 0 41 1;
#X connect 26 0 24 0;
#X connect 26 1 25 0;
#X connect 31 0 32 0;
#X connect 31 1 33 0;
#X connect 32 0 34 0;
#X connect 33 0 34 0;
#X connect 34 0 31 0;
#X connect 34 0 0 1;
#X connect 34 0 39 0;
#X connect 35 0 10 0;
#X connect 35 0 9 0;
#X connect 36 0 5 1;
#X connect 37 0 11 0;
#X connect 39 0 37 1;
#X connect 39 1 38 0;
#X connect 40 0 37 1;
#X connect 41 0 35 1;
#X connect 42 0 22 0;
#X coords 0 -1 1 1 17 17 2 80 400;
