#N canvas 47 116 606 657 10;
#X declare -lib cyclone;
#X declare -stdlib zexy/zexy;
#X declare -lib iemguts;
#X declare -stdlib iemlib/iemlib2;
#X obj 80 400 cnv 15 19 19 empty empty empty 20 12 0 14 -1 -66577 0
;
#X obj 82 402 tgl 15 0 empty empty empty 17 7 0 10 -191407 -1 -1 0
1;
#X obj 67 485 int;
#X obj 67 8 r SaveMaster;
#X obj 67 580 s to_Master_preset;
#X obj 81 62 r CallBack-Master;
#N canvas 1100 251 385 415 sym-route 0;
#X obj 50 34 inlet;
#X obj 210 36 inlet;
#X obj 84 376 outlet;
#X obj 49 60 t a a;
#X msg 158 222 1;
#X msg 191 221 0;
#X obj 50 276 spigot;
#X obj 50 322 list split 1;
#X obj 84 346 list trim;
#X text 48 13 message;
#X text 210 17 selector;
#X obj 159 276 spigot;
#X obj 192 254 == 0;
#X obj 165 377 outlet;
#X obj 121 100 list split 1;
#X obj 122 122 route symbol;
#X obj 159 186 select ___undefined___;
#X text 183 325 route with variable symbol arg.;
#X connect 0 0 3 0;
#X connect 1 0 16 1;
#X connect 3 0 6 0;
#X connect 3 0 11 0;
#X connect 3 1 14 0;
#X connect 4 0 6 1;
#X connect 4 0 12 0;
#X connect 5 0 6 1;
#X connect 5 0 12 0;
#X connect 6 0 7 0;
#X connect 7 1 8 0;
#X connect 8 0 2 0;
#X connect 11 0 13 0;
#X connect 12 0 11 1;
#X connect 14 0 15 0;
#X connect 15 0 16 0;
#X connect 15 1 5 0;
#X connect 16 0 4 0;
#X connect 16 1 5 0;
#X restore 81 379 pd sym-route;
#X obj 67 558 cyclone/prepend;
#X obj 81 89 t a b;
#X obj 128 323 inlet;
#X obj 124 472 outlet;
#X text 158 379 <- credit to Thomas Grill. Thank You!!!;
#X obj 287 436 prepend set;
#X msg 154 532 tgl-0--0;
#X obj 287 350 cyclone/prepend symbol;
#X obj 452 121 i \$2;
#X obj 287 263 symbol \$1;
#X obj 447 467 send preAbsCount;
#X obj 447 446 iemguts/canvasindex;
#X obj 447 421 loadbang;
#X obj 67 510 t a b;
#X obj 434 399 r update_abs_count;
#X obj 284 553 declare -lib cyclone;
#X obj 284 514 declare -stdlib zexy/zexy;
#X obj 284 572 declare -lib iemguts;
#X obj 287 325 cyclone/sprintf tgl-%s-%s-%d;
#X obj 67 30 t b b;
#X obj 287 67 t b b b;
#X obj 284 533 declare -stdlib iemlib/iemlib2;
#X obj 287 47 init;
#X obj 369 216 iemguts/canvasname 1;
#X obj 444 236 iemguts/canvasargs 1;
#X obj 369 195 t b b;
#X obj 369 256 sprintf %s-%s;
#X connect 1 0 2 1;
#X connect 1 0 10 0;
#X connect 2 0 20 0;
#X connect 3 0 26 0;
#X connect 5 0 8 0;
#X connect 6 0 1 0;
#X connect 7 0 4 0;
#X connect 8 0 6 0;
#X connect 8 1 15 0;
#X connect 9 0 1 0;
#X connect 12 0 13 0;
#X connect 13 0 7 1;
#X connect 14 0 6 1;
#X connect 15 0 25 2;
#X connect 16 0 25 0;
#X connect 18 0 17 0;
#X connect 19 0 18 0;
#X connect 20 0 7 0;
#X connect 20 1 13 0;
#X connect 21 0 18 0;
#X connect 25 0 14 0;
#X connect 25 0 12 0;
#X connect 26 0 2 0;
#X connect 26 1 29 0;
#X connect 27 0 16 0;
#X connect 27 1 32 0;
#X connect 27 2 15 0;
#X connect 29 0 27 0;
#X connect 30 0 33 0;
#X connect 31 0 33 1;
#X connect 32 0 30 0;
#X connect 32 1 31 0;
#X connect 33 0 25 1;
#X coords 0 -1 1 1 19 19 2 80 400;
