#N canvas 396 50 620 644 10;
#X declare -lib cyclone;
#X declare -stdlib zexy/zexy;
#X declare -lib iemguts;
#X declare -stdlib iemlib/iemlib2;
#X obj 65 514 int;
#X obj 65 4 r SaveMaster;
#X obj 65 601 s to_Master_preset;
#X obj 83 136 r CallBack-Master;
#N canvas 1100 251 385 415 sym-route 0;
#X obj 50 34 inlet;
#X obj 210 36 inlet;
#X obj 84 376 outlet;
#X obj 49 60 t a a;
#X msg 158 222 1;
#X msg 191 221 0;
#X obj 50 276 spigot;
#X obj 50 322 list split 1;
#X obj 84 346 list trim;
#X text 48 13 message;
#X text 210 17 selector;
#X obj 159 276 spigot;
#X obj 192 254 == 0;
#X obj 165 377 outlet;
#X obj 121 100 list split 1;
#X obj 122 122 route symbol;
#X obj 159 186 select ___undefined___;
#X text 183 325 route with variable symbol arg.;
#X connect 0 0 3 0;
#X connect 1 0 16 1;
#X connect 3 0 6 0;
#X connect 3 0 11 0;
#X connect 3 1 14 0;
#X connect 4 0 6 1;
#X connect 4 0 12 0;
#X connect 5 0 6 1;
#X connect 5 0 12 0;
#X connect 6 0 7 0;
#X connect 7 1 8 0;
#X connect 8 0 2 0;
#X connect 11 0 13 0;
#X connect 12 0 11 1;
#X connect 14 0 15 0;
#X connect 15 0 16 0;
#X connect 15 1 5 0;
#X connect 16 0 4 0;
#X connect 16 1 5 0;
#X restore 83 244 pd sym-route;
#X obj 65 579 cyclone/prepend;
#X obj 83 156 t a b;
#X obj 136 512 outlet;
#X text 162 243 <- credit to Thomas Grill. Thank You!!!;
#X obj 287 295 prepend set;
#X msg 152 557 vrd-0--0;
#X obj 287 217 cyclone/prepend symbol;
#X obj 454 173 i \$2;
#X obj 287 85 symbol \$1;
#X obj 9 167 inlet;
#X obj 65 536 t a b;
#X obj 420 364 send preAbsCount;
#X obj 420 343 iemguts/canvasindex;
#X obj 420 318 loadbang;
#X obj 407 296 r update_abs_count;
#X obj 83 307 pipe 10;
#X obj 80 350 vradio 15 1 0 4 empty empty empty 0 -8 0 10 -86277 -4032
-1 4;
#X obj 317 454 declare -lib cyclone;
#X obj 317 415 declare -stdlib zexy/zexy;
#X obj 317 473 declare -lib iemguts;
#X obj 287 40 initbang;
#X obj 287 192 cyclone/sprintf vrd-%s-%s-%d;
#X obj 317 434 declare -stdlib iemlib/iemlib2;
#X obj 65 23 t b b;
#X obj 369 114 iemguts/canvasname 1;
#X obj 444 134 iemguts/canvasargs 1;
#X obj 369 154 sprintf %s-%s;
#X obj 287 61 t b b b b;
#X text 377 570 www.jrsv.net;
#X text 336 557 released under GPL license;
#X text 350 585 Edinburgh - Scotland;
#X text 336 542 (c) J.Rafael Subia V. 2016;
#X connect 0 0 15 0;
#X connect 1 0 28 0;
#X connect 3 0 6 0;
#X connect 4 0 20 0;
#X connect 5 0 2 0;
#X connect 6 0 4 0;
#X connect 6 1 12 0;
#X connect 9 0 10 0;
#X connect 10 0 5 1;
#X connect 11 0 4 1;
#X connect 12 0 26 2;
#X connect 13 0 26 0;
#X connect 14 0 21 0;
#X connect 15 0 5 0;
#X connect 15 1 10 0;
#X connect 17 0 16 0;
#X connect 18 0 17 0;
#X connect 19 0 17 0;
#X connect 20 0 21 0;
#X connect 21 0 7 0;
#X connect 21 0 0 1;
#X connect 25 0 32 0;
#X connect 26 0 9 0;
#X connect 26 0 11 0;
#X connect 28 0 0 0;
#X connect 29 0 31 0;
#X connect 30 0 31 1;
#X connect 31 0 26 1;
#X connect 32 0 13 0;
#X connect 32 1 29 0;
#X connect 32 2 30 0;
#X connect 32 3 12 0;
#X coords 0 -1 1 1 15 60 2 80 350;
