#N canvas 636 99 636 669 10;
#X declare -lib cyclone;
#X declare -stdlib zexy/zexy;
#X declare -lib iemguts;
#X declare -stdlib iemlib/iemlib2;
#X obj 65 3 r SaveMaster;
#X obj 65 614 s to_Master_preset;
#X obj 125 34 r CallBack-Master;
#N canvas 1100 251 385 415 sym-route 0;
#X obj 50 34 inlet;
#X obj 210 36 inlet;
#X obj 84 376 outlet;
#X obj 49 60 t a a;
#X msg 158 222 1;
#X msg 191 221 0;
#X obj 50 276 spigot;
#X obj 50 322 list split 1;
#X obj 84 346 list trim;
#X text 48 13 message;
#X text 210 17 selector;
#X obj 159 276 spigot;
#X obj 192 254 == 0;
#X obj 165 377 outlet;
#X obj 121 100 list split 1;
#X obj 122 122 route symbol;
#X obj 159 186 select ___undefined___;
#X text 183 325 route with variable symbol arg.;
#X text 111 64 credit to Thomas Grill. Thank You!!!;
#X connect 0 0 3 0;
#X connect 1 0 16 1;
#X connect 3 0 6 0;
#X connect 3 0 11 0;
#X connect 3 1 14 0;
#X connect 4 0 6 1;
#X connect 4 0 12 0;
#X connect 5 0 6 1;
#X connect 5 0 12 0;
#X connect 6 0 7 0;
#X connect 7 1 8 0;
#X connect 8 0 2 0;
#X connect 11 0 13 0;
#X connect 12 0 11 1;
#X connect 14 0 15 0;
#X connect 15 0 16 0;
#X connect 15 1 5 0;
#X connect 16 0 4 0;
#X connect 16 1 5 0;
#X restore 123 130 pd sym-route;
#X obj 65 592 cyclone/prepend;
#X obj 218 607 outlet;
#X msg 152 570 vsl-HARP-volfader--0;
#X obj 450 111 i \$2;
#X obj 285 46 symbol \$1;
#X obj 125 282 line;
#X obj 9 58 inlet;
#X obj 9 163 t a b;
#X msg 36 183 0;
#X obj 65 549 t a b;
#X obj 405 267 send preAbsCount;
#X obj 405 246 iemguts/canvasindex;
#X obj 405 221 loadbang;
#X obj 392 199 r update_abs_count;
#X obj 80 352 vsl 25 160 0 127 0 0 empty empty empty 0 -9 0 10 -191407
-1 -1 5600 1;
#X obj 357 371 declare -lib cyclone;
#X obj 357 333 declare -stdlib zexy/zexy;
#X obj 357 390 declare -lib iemguts;
#X obj 357 352 declare -stdlib iemlib/iemlib2;
#X obj 285 3 initbang;
#X obj 285 131 cyclone/sprintf vsl-%s-%s-%d;
#X obj 65 22 t b b;
#X obj 367 44 iemguts/canvasname 1;
#X obj 442 64 iemguts/canvasargs 1;
#X obj 367 83 sprintf %s-%s;
#X obj 285 23 t b b b b, f 28;
#X text 423 571 www.jrsv.net;
#X text 382 558 released under GPL license;
#X text 396 586 Edinburgh - Scotland;
#X text 382 543 (c) J.Rafael Subia V. 2016;
#X text 380 436 x = 25 :: y = 165;
#X obj 198 164 r PreInterpTime;
#X obj 9 237 pack;
#X obj 125 255 pack;
#X obj 192 102 pr.pnd symbol;
#X obj 285 496 pr.pnd set;
#X msg 104 310 set \$1;
#X obj 125 438 spigot 1;
#X obj 230 410 change;
#X obj 230 455 0;
#X obj 230 433 bang;
#X obj 215 245 i;
#X msg 215 266 \$1 0;
#X obj 172 380 1;
#X obj 126 52 t a b;
#X obj 125 168 t a b b;
#X obj 137 522 t a a;
#X obj 215 224 t b b;
#X obj 65 527 f;
#X obj 125 228 bondo 2 10;
#X connect 0 0 25 0;
#X connect 2 0 48 0;
#X connect 3 0 49 0;
#X connect 4 0 1 0;
#X connect 6 0 4 1;
#X connect 7 0 24 2;
#X connect 8 0 24 0;
#X connect 9 0 41 0;
#X connect 10 0 11 0;
#X connect 11 0 36 0;
#X connect 11 1 12 0;
#X connect 12 0 36 1;
#X connect 13 0 4 0;
#X connect 13 1 6 0;
#X connect 15 0 14 0;
#X connect 16 0 15 0;
#X connect 17 0 15 0;
#X connect 18 0 50 0;
#X connect 18 0 52 1;
#X connect 23 0 29 0;
#X connect 24 0 38 0;
#X connect 24 0 39 0;
#X connect 25 0 52 0;
#X connect 25 1 18 0;
#X connect 26 0 28 0;
#X connect 27 0 28 1;
#X connect 28 0 24 1;
#X connect 29 0 8 0;
#X connect 29 1 26 0;
#X connect 29 2 27 0;
#X connect 29 3 7 0;
#X connect 35 0 53 1;
#X connect 36 0 9 0;
#X connect 37 0 9 0;
#X connect 38 0 3 1;
#X connect 39 0 6 0;
#X connect 40 0 18 0;
#X connect 41 0 40 0;
#X connect 41 0 5 0;
#X connect 41 0 45 1;
#X connect 42 0 44 0;
#X connect 43 0 41 1;
#X connect 44 0 43 0;
#X connect 45 0 46 0;
#X connect 46 0 9 0;
#X connect 47 0 41 1;
#X connect 48 0 3 0;
#X connect 48 1 7 0;
#X connect 49 0 53 0;
#X connect 49 1 47 0;
#X connect 49 2 51 0;
#X connect 50 0 45 1;
#X connect 50 0 5 0;
#X connect 50 1 42 0;
#X connect 51 0 45 0;
#X connect 51 1 18 0;
#X connect 52 0 13 0;
#X connect 53 0 37 0;
#X connect 53 1 37 1;
#X coords 0 -1 1 1 25 165 2 80 350;
