#N canvas 375 50 765 648 10;
#X declare -lib cyclone;
#X declare -stdlib zexy/zexy;
#X declare -lib iemguts;
#X declare -stdlib iemlib/iemlib2;
#X obj 80 350 cnv 15 21 139 empty empty empty 20 12 0 14 -1 -66577
0;
#X obj 65 514 int;
#X obj 65 2 r SaveMaster;
#X obj 65 601 s to_Master_preset;
#X obj 80 109 r CallBack-Master;
#N canvas 1100 251 385 415 sym-route 0;
#X obj 50 34 inlet;
#X obj 210 36 inlet;
#X obj 84 376 outlet;
#X obj 49 60 t a a;
#X msg 158 222 1;
#X msg 191 221 0;
#X obj 50 276 spigot;
#X obj 50 322 list split 1;
#X obj 84 346 list trim;
#X text 48 13 message;
#X text 210 17 selector;
#X obj 159 276 spigot;
#X obj 192 254 == 0;
#X obj 165 377 outlet;
#X obj 121 100 list split 1;
#X obj 122 122 route symbol;
#X obj 159 186 select ___undefined___;
#X text 183 325 route with variable symbol arg.;
#X connect 0 0 3 0;
#X connect 1 0 16 1;
#X connect 3 0 6 0;
#X connect 3 0 11 0;
#X connect 3 1 14 0;
#X connect 4 0 6 1;
#X connect 4 0 12 0;
#X connect 5 0 6 1;
#X connect 5 0 12 0;
#X connect 6 0 7 0;
#X connect 7 1 8 0;
#X connect 8 0 2 0;
#X connect 11 0 13 0;
#X connect 12 0 11 1;
#X connect 14 0 15 0;
#X connect 15 0 16 0;
#X connect 15 1 5 0;
#X connect 16 0 4 0;
#X connect 16 1 5 0;
#X restore 80 218 pd sym-route;
#X obj 65 579 cyclone/prepend;
#X obj 80 129 t a b;
#X obj 136 512 outlet;
#X text 194 223 <- credit to Thomas Grill. Thank You!!!;
#X obj 287 268 prepend set;
#X msg 152 557 vsl-0--0;
#X obj 287 191 cyclone/prepend symbol;
#X obj 452 146 i \$2;
#X obj 287 81 symbol \$1;
#X obj 80 328 line;
#X obj 153 249 r PreInterpTime;
#X obj 9 140 inlet;
#X obj 9 162 t a b;
#X msg 36 182 0;
#X obj 65 536 t a b;
#X obj 80 307 pack;
#X obj 428 493 send preAbsCount;
#X obj 428 472 iemguts/canvasindex;
#X obj 428 447 loadbang;
#X obj 415 425 r update_abs_count;
#X obj 80 280 pipe 10;
#X obj 83 355 vsl 15 128 0 127 0 0 empty empty empty 0 -9 0 10 -191407
-1 -1 0 1;
#X obj 347 572 declare -lib cyclone;
#X obj 347 534 declare -stdlib zexy/zexy;
#X obj 347 591 declare -lib iemguts;
#X obj 347 553 declare -stdlib iemlib/iemlib2;
#X obj 287 38 init;
#X obj 287 166 cyclone/sprintf vsl-%s-%s-%d;
#X obj 65 21 t b b;
#X obj 369 86 iemguts/canvasname 1;
#X obj 444 106 iemguts/canvasargs 1;
#X obj 369 126 sprintf %s-%s;
#X obj 287 58 t b b b b;
#X connect 1 0 20 0;
#X connect 2 0 34 0;
#X connect 4 0 7 0;
#X connect 5 0 26 0;
#X connect 6 0 3 0;
#X connect 7 0 5 0;
#X connect 7 1 13 0;
#X connect 10 0 11 0;
#X connect 11 0 6 1;
#X connect 12 0 5 1;
#X connect 13 0 33 2;
#X connect 14 0 33 0;
#X connect 15 0 27 0;
#X connect 16 0 21 1;
#X connect 17 0 18 0;
#X connect 18 0 21 0;
#X connect 18 1 19 0;
#X connect 19 0 21 1;
#X connect 20 0 6 0;
#X connect 20 1 11 0;
#X connect 21 0 15 0;
#X connect 23 0 22 0;
#X connect 24 0 23 0;
#X connect 25 0 23 0;
#X connect 26 0 21 0;
#X connect 27 0 8 0;
#X connect 27 0 1 1;
#X connect 32 0 38 0;
#X connect 33 0 10 0;
#X connect 33 0 12 0;
#X connect 34 0 1 0;
#X connect 34 1 32 0;
#X connect 35 0 37 0;
#X connect 36 0 37 1;
#X connect 37 0 33 1;
#X connect 38 0 14 0;
#X connect 38 1 35 0;
#X connect 38 2 36 0;
#X connect 38 3 13 0;
#X coords 0 -1 1 1 21 139 2 80 350;
